<svg width="23" height="30" viewBox="0 0 23 30" fill="none" xmlns="http://www.w3.org/2000/svg">
<path d="M16.5346 3.99165C18.3889 5.28369 19.246 7.36402 18.9263 9.56788C18.6624 11.2803 17.4744 12.7832 15.9505 13.7049C14.7486 15.6254 12.5226 16.5735 10.2295 16.1646C8.6207 15.8684 7.14208 14.7793 6.30095 13.32C4.39485 12.0638 3.48708 9.95661 3.78369 7.68865C4.08681 5.9525 5.14098 4.25492 6.85051 3.50387C8.10217 1.6233 10.2896 0.686809 12.5444 1.09398C14.1646 1.41594 15.6708 2.45544 16.5346 3.99165Z" fill="black"/>
<path d="M16.1124 3.67289C13.9867 2.58983 11.5258 2.92636 10.2667 3.86255C8.56909 5.00599 7.76751 6.7883 7.68527 8.76011C7.73868 9.77484 8.19156 10.6765 8.95665 11.3991C7.25414 10.5046 6.1074 8.66754 6.07196 6.78042C6.04163 4.74139 7.03577 2.94022 8.83241 1.87619C9.88571 1.29258 11.1206 0.980766 12.4117 1.24078C13.9072 1.48271 15.2662 2.35261 16.1124 3.67289Z" fill="white"/>
<path d="M16.1124 3.67289C13.9867 2.58983 11.5258 2.92636 10.2667 3.86255C8.56909 5.00599 7.76751 6.7883 7.68527 8.76011C7.73868 9.77484 8.19156 10.6765 8.95665 11.3991C7.25414 10.5046 6.1074 8.66754 6.07196 6.78042C6.04163 4.74139 7.03577 2.94022 8.83241 1.87619C9.88571 1.29258 11.1206 0.980766 12.4117 1.24078C13.9072 1.48271 15.2662 2.35261 16.1124 3.67289Z" stroke="#12316B" stroke-width="0.5408" stroke-miterlimit="1.9901" stroke-linejoin="bevel"/>
<path d="M18.2501 6.27854C19.0987 7.89005 18.9527 10.2269 17.8811 11.696C17.4913 12.2645 16.948 12.8535 16.3247 13.1735C16.8763 11.9901 17.098 10.4029 16.6843 9.1101C16.2391 7.27233 14.4496 5.60236 12.6295 5.147C11.1281 4.70242 9.43095 5.11202 8.43188 6.33034C8.89549 5.11858 10.0694 3.99486 11.2984 3.49356C13.1962 2.81228 15.5539 3.19781 16.9959 4.60242C17.5271 5.08899 17.9787 5.66153 18.2501 6.27854Z" fill="white"/>
<path d="M18.2501 6.27854C19.0987 7.89004 18.9527 10.2269 17.8811 11.696C17.4913 12.2645 16.948 12.8535 16.3247 13.1735C16.8763 11.9901 17.098 10.4029 16.6843 9.1101C16.2391 7.27233 14.4496 5.60236 12.6295 5.147C11.1281 4.70242 9.43095 5.11202 8.43188 6.33034C8.89549 5.11858 10.0694 3.99486 11.2984 3.49356C13.1962 2.81228 15.5539 3.19781 16.9959 4.60242C17.5271 5.089 17.9787 5.66152 18.2501 6.27854Z" stroke="#12316B" stroke-width="0.5408" stroke-miterlimit="1.9901" stroke-linejoin="bevel"/>
<path d="M6.58223 3.86154C5.64284 5.56318 5.68054 8.10844 6.81046 9.69199C8.01689 11.278 9.71069 12.4128 11.7701 12.2183C12.7438 12.0748 13.6285 11.5739 14.2941 10.7742C13.5496 12.7231 11.4625 14.0685 9.38577 14.0343C7.38433 14.041 5.58391 13.0291 4.58774 11.2731C3.62075 9.77139 3.68942 7.45726 4.54651 5.91745C4.99654 5.08479 5.71273 4.29962 6.58223 3.86154Z" fill="white"/>
<path d="M6.58223 3.86154C5.64284 5.56318 5.68054 8.10844 6.81046 9.69199C8.01689 11.278 9.71069 12.4128 11.7701 12.2183C12.7438 12.0748 13.6285 11.5739 14.2941 10.7742C13.5496 12.7231 11.4625 14.0685 9.38577 14.0343C7.38433 14.041 5.58391 13.0291 4.58774 11.2731C3.62075 9.77139 3.68942 7.45726 4.54651 5.91745C4.99654 5.08479 5.71273 4.29962 6.58223 3.86154Z" stroke="#12316B" stroke-width="0.5408" stroke-miterlimit="1.9901" stroke-linejoin="bevel"/>
<path d="M14.5644 7.40415C15.0951 8.6249 14.7096 10.1559 13.7726 11.0727C13.0733 11.7448 12.2216 12.0315 11.2891 12.0878C10.0814 11.9952 8.96719 11.4125 8.34193 10.3402C7.69128 9.26697 7.71262 7.5716 8.51228 6.58691C8.74255 6.20225 9.13336 5.96282 9.47435 5.69596C10.4533 5.04646 11.9345 4.97118 12.9591 5.56389C13.6719 5.95546 14.272 6.66005 14.5644 7.40415Z" fill="white"/>
<path d="M14.5644 7.40415C15.0951 8.6249 14.7096 10.1559 13.7726 11.0727C13.0733 11.7448 12.2216 12.0315 11.2891 12.0878C10.0814 11.9952 8.96719 11.4125 8.34193 10.3402C7.69128 9.26697 7.71262 7.5716 8.51228 6.58691C8.74255 6.20225 9.13336 5.96282 9.47435 5.69596C10.4533 5.04646 11.9345 4.97118 12.9591 5.56389C13.6719 5.95546 14.272 6.66005 14.5644 7.40415Z" stroke="#12316B" stroke-width="0.5408" stroke-miterlimit="1.9901" stroke-linejoin="bevel"/>
<path d="M16.538 9.29558C16.5829 9.41616 16.5894 9.43548 16.6064 9.52584C17.0736 11.833 16.0118 14.0998 14.0828 15.3116C12.5561 16.309 10.1316 16.364 8.57325 15.3737C7.84731 14.994 7.19405 14.3511 6.73462 13.6391C7.13233 13.7551 7.46723 13.922 7.86819 14.0328C10.281 14.6603 12.6868 13.6806 14.0454 11.652C14.9167 10.4547 15.3025 8.54406 14.6501 7.15424C14.414 6.61459 13.9595 6.1304 13.5025 5.70931L13.5161 5.68466C14.9866 6.29251 16.1699 7.80205 16.538 9.29558Z" fill="white"/>
<path d="M16.538 9.29558C16.5829 9.41616 16.5894 9.43548 16.6064 9.52584C17.0736 11.833 16.0118 14.0998 14.0828 15.3116C12.5561 16.309 10.1316 16.364 8.57325 15.3737C7.84731 14.994 7.19405 14.3511 6.73462 13.6391C7.13233 13.7551 7.46723 13.922 7.86819 14.0328C10.281 14.6603 12.6868 13.6806 14.0454 11.652C14.9167 10.4547 15.3025 8.54406 14.6501 7.15424C14.414 6.61459 13.9595 6.1304 13.5025 5.70931L13.5161 5.68466C14.9866 6.29251 16.1699 7.80205 16.538 9.29558Z" stroke="#12316B" stroke-width="0.5408" stroke-miterlimit="1.9901" stroke-linejoin="bevel"/>
<path d="M15.7309 22.8426C15.7309 23.4481 15.795 23.9086 15.9237 24.2243C16.0526 24.5402 16.2578 24.7413 16.5366 24.826C16.6119 24.8494 16.7147 24.8662 16.8447 24.877C17.0339 24.8938 17.1289 24.946 17.1289 25.0346C17.1289 25.088 17.1088 25.1274 17.0673 25.1497C17.0274 25.1715 16.9451 25.1821 16.8209 25.1821H14.5281C14.4147 25.1821 14.3382 25.1715 14.2994 25.1497C14.2604 25.1274 14.2402 25.0879 14.2402 25.0346C14.2402 24.946 14.3217 24.8951 14.4845 24.8819C14.5409 24.8783 14.5808 24.8758 14.6072 24.8716C14.8773 24.8169 15.0838 24.6182 15.2253 24.2752C15.3667 23.9322 15.438 23.4608 15.438 22.8636V18.4986C15.3018 18.2444 15.03 18.1071 14.6273 18.0865C14.5323 18.0824 14.4583 18.0775 14.4068 18.0708C14.3344 18.0679 14.2805 18.0535 14.2431 18.0277C14.2052 18.0031 14.1868 17.9664 14.1868 17.9179C14.1868 17.8607 14.2065 17.8199 14.248 17.7953C14.2879 17.7718 14.3632 17.7603 14.4706 17.7603H16.9435C17.001 17.7603 17.0476 17.7652 17.08 17.7759C17.1125 17.7863 17.14 17.8031 17.1626 17.8269C17.1701 17.8331 17.1927 17.8932 17.2314 18.0042C17.2705 18.1165 17.3178 18.2115 17.3729 18.29L20.654 23.3983V20.0242C20.654 19.4392 20.5903 18.9934 20.4639 18.6878C20.3365 18.3826 20.135 18.1921 19.8568 18.1165C19.7857 18.0968 19.6817 18.0811 19.5443 18.0708C19.3526 18.0578 19.2564 18.0067 19.2564 17.9179C19.2564 17.8607 19.279 17.8199 19.3226 17.7953C19.3666 17.7718 19.4464 17.7603 19.5645 17.7603H21.8959C22.0032 17.7603 22.0784 17.7718 22.1221 17.7953C22.166 17.8199 22.1883 17.8607 22.1883 17.9179C22.1846 18.0067 22.1035 18.0578 21.9444 18.0708C21.8856 18.0746 21.8432 18.0775 21.8168 18.0811C21.5179 18.1425 21.2974 18.3292 21.1575 18.6423C21.0173 18.954 20.9469 19.4122 20.9469 20.0135V23.7298C21.0485 23.8631 21.1834 23.9647 21.3525 24.0351C21.5215 24.1071 21.6067 24.1672 21.6067 24.214C21.6067 24.2481 21.5154 24.3106 21.3327 24.4008C21.1509 24.4904 20.9909 24.5887 20.8543 24.6928C20.7043 24.805 20.5591 24.9461 20.4163 25.1169C20.2748 25.2867 20.195 25.3714 20.175 25.3714C20.1239 25.3714 20.0511 25.2983 19.9598 25.1523C19.9434 25.1275 19.9322 25.1102 19.9262 25.1012L15.731 18.5094V22.8426H15.7309Z" fill="white"/>
<path d="M20.5258 29.044V28.67H21.1185L20.5298 27.258L20.5258 27.267V26.7993H20.8161L22.2332 29.9999H21.6725L21.2699 29.044H20.5258ZM20.5258 26.7993V27.267L19.933 28.67H20.5258V29.044H19.7738L19.3682 29.9999H18.8331L20.246 26.7994L20.5258 26.7993ZM12.7419 28.6294V28.26H12.7468C13.0656 28.26 13.2907 28.2161 13.4227 28.1293C13.5539 28.0425 13.62 27.8981 13.62 27.6949C13.62 27.5049 13.5584 27.3711 13.4341 27.2926C13.31 27.2148 13.0808 27.1754 12.7468 27.1754H12.7418V26.7994H12.8324C13.0709 26.7994 13.2474 26.8086 13.3601 26.8254C13.4727 26.8436 13.5743 26.8723 13.6633 26.9122C13.8236 26.9866 13.945 27.0895 14.0289 27.2207C14.1128 27.3528 14.1539 27.5079 14.1539 27.6859C14.1539 27.8588 14.1099 28.0063 14.0226 28.1289C13.9347 28.2511 13.8042 28.3469 13.6307 28.4164C13.7776 28.4514 13.8837 28.5103 13.9462 28.5925C14.0087 28.6747 14.0473 28.815 14.0634 29.0116L14.1074 29.5398C14.1161 29.6523 14.1338 29.7368 14.16 29.7922C14.1876 29.8483 14.2271 29.8882 14.2809 29.9111V29.9999H13.6841C13.636 29.9334 13.6022 29.791 13.5838 29.5722V29.5619L13.552 29.1419C13.5344 28.9276 13.4809 28.789 13.3892 28.7252C13.3017 28.6635 13.0854 28.6315 12.7419 28.6294ZM15.3439 27.2733V29.9999H14.8689V26.7994H15.6072L16.5492 29.248C16.5767 29.3175 16.5968 29.3718 16.6092 29.4105C16.6223 29.4482 16.6322 29.4825 16.6391 29.5112C16.6532 29.4578 16.6664 29.4097 16.6808 29.3681C16.6947 29.3258 16.7086 29.2859 16.7247 29.248L17.7011 26.7994H18.4412V29.9999H17.9405V27.2733C17.9282 27.3193 17.9151 27.3662 17.8995 27.4135C17.8842 27.4605 17.8674 27.5069 17.8501 27.5529L16.872 29.9999H16.3838L15.4292 27.5529C15.4119 27.513 15.3967 27.4694 15.3827 27.4233C15.3682 27.3764 15.3563 27.3267 15.3439 27.2733ZM12.7419 26.7994V27.1753H11.8637V28.26H12.7419V28.6294H11.8691V29.9999H11.3579V26.7994H12.7419ZM9.25766 29.044V28.67H9.85043L9.26172 27.258L9.25766 27.267V26.7993H9.54801L10.965 29.9999H10.4045L10.0018 29.044H9.25766ZM2.29642 28.2645H2.32484C2.62592 28.2645 2.83693 28.2234 2.95577 28.1427C3.07549 28.0613 3.13558 27.9223 3.13558 27.7252C3.13558 27.5353 3.07636 27.3986 2.95751 27.3163C2.83855 27.2342 2.64118 27.1926 2.36347 27.1926H2.29642V26.7993H2.34056C2.56792 26.7993 2.74076 26.8092 2.85961 26.8277C2.9777 26.8462 3.08425 26.8771 3.17664 26.9211C3.33174 26.9923 3.45105 27.0968 3.53288 27.2362C3.61559 27.3753 3.65712 27.5381 3.65712 27.7252C3.65712 27.903 3.61559 28.0604 3.53288 28.197C3.45105 28.3328 3.33017 28.4417 3.17142 28.5224C3.08088 28.5693 2.97306 28.6018 2.84975 28.6211C2.73543 28.6399 2.5511 28.6495 2.29648 28.6507V28.2645H2.29642ZM9.25766 26.7993V27.267L8.66489 28.67H9.25766V29.044H8.50573L8.10019 29.9999H7.56547L8.97792 26.7994L9.25766 26.7993ZM4.16556 29.9999V26.7994H4.68212V28.1144H6.6541V26.7994H7.17315V29.9999H6.6541V28.501H4.68212V29.9999H4.16556ZM1.45743 28.2645H2.29642V28.6508H1.45743V29.9999H0.941162V26.7994L2.29642 26.7993V27.1926L1.45743 27.1926V28.2645Z" fill="white"/>
<path d="M7.61976 20.1404C7.61976 19.342 7.57986 18.8304 7.49964 18.6058C7.41954 18.3817 7.27547 18.2262 7.06782 18.1373C6.98917 18.1037 6.86134 18.0801 6.68357 18.0658C6.50597 18.0526 6.41699 17.9992 6.41699 17.9079C6.41699 17.8544 6.43602 17.8153 6.47343 17.7931C6.51084 17.7709 6.58241 17.7607 6.686 17.7607H10.1814C10.3052 17.7607 10.3879 17.771 10.4303 17.7931C10.4731 17.8153 10.4944 17.8544 10.4944 17.9079C10.4944 17.9967 10.3854 18.0501 10.1667 18.0712C10.0564 18.0815 9.96643 18.0934 9.89718 18.1062C9.60073 18.1571 9.39669 18.3008 9.28689 18.5355C9.17547 18.7692 9.12031 19.3056 9.12031 20.1406V23.1589C9.12031 23.4784 9.138 23.7248 9.17413 23.8983C9.21039 24.072 9.2692 24.2245 9.35057 24.3579C9.4867 24.5848 9.69203 24.7572 9.96637 24.872C10.2403 24.9879 10.576 25.0455 10.9737 25.0455C11.7131 25.0455 12.2487 24.8601 12.579 24.4895C12.911 24.1193 13.0759 23.5149 13.0759 22.6747V19.9933C13.0759 19.4151 13.0109 18.9741 12.8809 18.6671C12.7505 18.362 12.5489 18.1781 12.2788 18.1169C12.1973 18.097 12.0936 18.0815 11.9662 18.0712C11.7671 18.0539 11.6667 17.9992 11.6631 17.9079C11.6631 17.8544 11.6831 17.8153 11.7218 17.7931C11.7609 17.7709 11.8357 17.7607 11.9472 17.7607H14.2588C14.3826 17.7607 14.4648 17.771 14.5052 17.7931C14.5463 17.8153 14.5664 17.8544 14.5664 17.9079C14.5664 17.9925 14.4888 18.0411 14.3324 18.0501C14.2597 18.058 14.2061 18.0646 14.1708 18.0712C13.9134 18.1181 13.7154 18.3073 13.5764 18.6375C13.4374 18.9661 13.3688 19.4125 13.3688 19.9723V22.8322C13.3688 23.7342 13.1487 24.3812 12.7094 24.7777C12.2689 25.1734 11.5466 25.3717 10.543 25.3717C10.0539 25.3717 9.61349 25.3154 9.22054 25.2035C8.82862 25.0912 8.5008 24.9278 8.24037 24.7139C8.01255 24.5271 7.85252 24.3133 7.75879 24.0719C7.66622 23.8308 7.61976 23.4626 7.61976 22.9707V20.1404Z" fill="white"/>
<path d="M6.29051 19.4503C6.3107 19.5039 6.32299 19.5458 6.32908 19.5741C6.33575 19.6042 6.33941 19.6276 6.33941 19.6485C6.33941 19.7032 6.32908 19.7452 6.3107 19.7736C6.29051 19.8023 6.2618 19.8168 6.2219 19.8168C6.14412 19.8168 6.00874 19.6577 5.81636 19.338C5.71218 19.1685 5.62715 19.0299 5.56213 18.9255C5.35432 18.6058 5.06895 18.341 4.70732 18.1325C4.34458 17.9235 3.98555 17.8195 3.626 17.8195C3.17313 17.8195 2.80673 17.9341 2.52612 18.1637C2.24609 18.3919 2.10573 18.6894 2.10573 19.0522C2.10573 19.2257 2.14198 19.3813 2.21309 19.5194C2.28461 19.6564 2.3958 19.7831 2.54625 19.8979C2.67252 19.997 3.232 20.1862 4.22324 20.4642C4.48355 20.5386 4.68481 20.5971 4.82877 20.6379C5.46464 20.8204 5.9352 21.0865 6.24168 21.4325C6.54844 21.7793 6.7011 22.2177 6.7011 22.7476C6.7011 23.485 6.43453 24.0905 5.90144 24.5638C5.36963 25.0378 4.67994 25.275 3.83678 25.275C3.61127 25.275 3.37114 25.2545 3.11559 25.2113C2.85905 25.1694 2.71382 25.1471 2.67751 25.1471C2.50843 25.1471 2.36088 25.2397 2.23827 25.4251C2.11449 25.6106 2.03427 25.7031 1.99814 25.7031C1.96926 25.7031 1.94414 25.6928 1.92529 25.6704C1.90557 25.648 1.88295 25.6029 1.85668 25.535L0.835274 23.1354C0.82176 23.1012 0.808131 23.0646 0.791717 23.0281C0.775593 22.9902 0.766602 22.9667 0.766602 22.9566C0.766602 22.9055 0.778087 22.8652 0.800243 22.8339C0.824198 22.8039 0.854068 22.7882 0.893973 22.7882C0.955802 22.7882 1.07958 22.9252 1.26454 23.2003C1.45101 23.4756 1.64137 23.7175 1.83666 23.9247C2.17562 24.2912 2.51371 24.5574 2.85151 24.7231C3.18786 24.8877 3.55733 24.9699 3.9591 24.9699C4.41824 24.9699 4.79374 24.8448 5.08525 24.5952C5.37694 24.3446 5.52333 24.0251 5.52333 23.6348C5.52333 23.0231 4.81392 22.5064 3.39608 22.0849C3.29568 22.0549 3.2208 22.0327 3.17191 22.0183C2.32451 21.7601 1.73754 21.4704 1.41221 21.1492C1.08561 20.8284 0.922798 20.4019 0.922798 19.8679C0.922798 19.2115 1.17702 18.6595 1.68488 18.212C2.19465 17.7632 2.82756 17.5387 3.58731 17.5387C3.81265 17.5387 4.06774 17.5662 4.35188 17.6226C4.63742 17.6785 4.81015 17.7069 4.86862 17.7069C5.03142 17.7069 5.14662 17.6275 5.21279 17.467C5.27938 17.3079 5.33291 17.2285 5.37195 17.2285C5.39416 17.2285 5.41678 17.2426 5.43824 17.2713C5.45959 17.3 5.4818 17.3523 5.50819 17.4268L6.29051 19.4503Z" fill="white"/>
</svg>
