<svg width="51" height="29" viewBox="0 0 51 29" fill="none" xmlns="http://www.w3.org/2000/svg">
<path fill-rule="evenodd" clip-rule="evenodd" d="M31.4437 15.9959C31.07 15.9959 30.725 15.9183 30.8342 15.5762C30.9406 15.2428 31.3057 15.168 31.8548 15.2485C32.148 15.2916 32.0847 15.6912 31.941 15.8177C31.8088 15.9327 31.7369 15.9988 31.4437 15.9959Z" fill="white"/>
<path fill-rule="evenodd" clip-rule="evenodd" d="M36.7187 20.9921C35.7902 21.0094 35.3274 20.5638 35.3274 20.5638L35.4711 19.7359C35.4711 19.7359 36.0259 20.3281 36.8136 20.2045C37.1959 20.1441 37.6847 19.572 37.2764 19.253C36.5836 18.7096 35.2527 18.6061 35.8822 17.0797C36.2272 16.246 37.3684 16.0707 38.0124 16.2173C38.5471 16.338 38.754 16.6284 38.754 16.6284C38.754 16.6284 38.6362 17.2062 38.5873 17.4333C38.1561 17.1889 37.7048 16.9129 37.2448 17.0394C36.759 17.1717 36.5664 17.7409 36.8136 17.9766C37.3023 18.4423 38.0037 18.448 38.2481 19.1035C38.4522 19.6497 38.1848 20.308 37.7565 20.6184C37.4547 20.8369 37.1212 20.9864 36.7187 20.9921Z" fill="white"/>
<path fill-rule="evenodd" clip-rule="evenodd" d="M31.8979 20.9174H32.8725L33.8211 15.3174H32.8207L31.8979 20.9174Z" fill="white"/>
<path fill-rule="evenodd" clip-rule="evenodd" d="M30.0437 20.9173H31.07L31.9065 16.381C31.9065 16.381 31.619 16.4587 31.3344 16.4587C31.1275 16.4587 30.8572 16.381 30.8572 16.381L30.0466 20.9173H30.0437Z" fill="white"/>
<path fill-rule="evenodd" clip-rule="evenodd" d="M33.6804 20.9174H34.6549L35.6007 15.3174H34.6032L33.6804 20.9174Z" fill="white"/>
<path fill-rule="evenodd" clip-rule="evenodd" d="M24.0874 20.9318L25.0993 15.4152L26.5798 15.421L26.8701 19.503L28.7329 15.4296H30.2393L29.2734 20.9433L28.2988 20.926L28.9801 16.9848L27.1087 20.9318H26.2147L25.6886 17.1027L25.0073 20.9318H24.0874Z" fill="white"/>
<path fill-rule="evenodd" clip-rule="evenodd" d="M48.7581 14.1791H49.7297L50.6784 8.57916H49.678L48.7581 14.1791Z" fill="white"/>
<path fill-rule="evenodd" clip-rule="evenodd" d="M35.9571 10.3989C35.0343 10.4535 34.7037 11.3533 34.6721 11.405L34.1259 14.182H33.1255L33.9563 9.49622H34.8906L34.8848 10.1833C34.8848 10.1833 35.6064 9.24038 36.5723 9.38411C37.7336 9.55947 37.5784 10.7065 37.5382 11.1089C37.5037 11.451 37.0121 14.1791 37.0121 14.1791H36.0117L36.5579 11.1032C36.5579 11.1032 36.6039 10.3558 35.9542 10.3931L35.9571 10.3989Z" fill="white"/>
<path fill-rule="evenodd" clip-rule="evenodd" d="M38.7542 12.2185H41.626C41.626 12.2185 42.3907 9.79228 40.6774 9.51919C38.8491 9.22884 37.8688 10.8071 37.7711 12.1869C37.6015 14.5413 39.3838 14.4723 40.3152 14.2452C40.7952 14.1273 41.1057 13.8427 41.1057 13.8427L41.3127 12.8423C41.3127 12.8423 40.1369 13.9405 39.1135 13.4317C38.576 13.1643 38.7542 12.2185 38.7542 12.2185ZM38.9152 11.4194C38.9526 11.313 39.2458 10.5455 40.0564 10.4736C40.7406 10.4132 41.0655 10.6346 40.9735 11.4194H38.9152Z" fill="white"/>
<path fill-rule="evenodd" clip-rule="evenodd" d="M30.0926 12.2185H32.9644C32.9644 12.2185 33.7291 9.79228 32.0158 9.51919C30.1875 9.22884 29.2072 10.8071 29.1094 12.1869C28.9398 14.5413 30.7221 14.4723 31.6536 14.2452C32.1336 14.1273 32.4441 13.8427 32.4441 13.8427L32.6511 12.8423C32.6511 12.8423 31.4753 13.9405 30.4519 13.4317C29.9144 13.1643 30.0926 12.2185 30.0926 12.2185ZM30.2536 11.4194C30.2909 11.313 30.5842 10.5455 31.3948 10.4736C32.079 10.4132 32.4038 10.6346 32.3119 11.4194H30.2536Z" fill="white"/>
<path fill-rule="evenodd" clip-rule="evenodd" d="M44.2966 10.4103C43.5262 10.5253 43.345 11.1721 43.3163 11.3389L42.7845 14.1819H41.741L42.5919 9.41281H43.4687V10.1717C43.4687 10.1717 43.874 9.30069 44.5582 9.37256C44.8801 9.40706 45.0469 9.51055 45.0469 9.51055L44.8456 10.5224C44.8456 10.5224 44.6358 10.3586 44.2995 10.4075L44.2966 10.4103Z" fill="white"/>
<path fill-rule="evenodd" clip-rule="evenodd" d="M47.3552 12.1322C47.3552 12.1322 47.1597 13.5466 46.0329 13.5207C45.4579 13.5063 45.547 12.9314 45.8633 12.6756C46.4813 12.1725 47.3581 12.1322 47.3581 12.1322H47.3552ZM46.9729 13.8197L47.0448 14.1819H47.9934L48.6028 11.0284C48.6028 11.0284 48.9651 9.45589 47.2 9.35528C45.8489 9.27766 45.3429 10.1084 45.3429 10.1084L45.1877 11.1865C45.1877 11.1865 45.8633 10.3039 46.7717 10.3183C47.6139 10.3327 47.5881 10.669 47.6139 10.8243C47.6398 10.9795 47.568 11.4596 46.6021 11.6407C45.7713 11.7959 44.3713 12.3133 44.6415 13.5236C44.9663 14.9638 46.8608 13.9922 46.97 13.8226L46.9729 13.8197Z" fill="white"/>
<path fill-rule="evenodd" clip-rule="evenodd" d="M22.0608 11.0801C22.6558 7.64769 24.3864 5.73314 24.3864 5.73314L20.9856 5.68427C20.1232 6.29083 19.0164 7.2826 17.1651 7.50108C17.2542 7.28835 17.3117 7.15612 17.3261 7.12449C17.4813 6.77953 18.0247 5.6354 18.1828 4.71837C18.614 2.226 17.0156 0.426437 14.9746 0.0728487C11.7377 -0.487718 9.39481 2.28924 8.98948 4.62063C8.66176 6.51506 9.48393 9.0103 12.0539 10.3212L11.5796 11.4653C11.4818 11.4452 11.3841 11.4279 11.2835 11.4107C4.96777 10.3154 0.986307 13.8915 0.267631 18.0311C-0.534411 22.6594 2.9986 27.7419 9.25395 28.8256C15.1298 29.8461 20.7729 26.3333 21.8998 19.8336C22.4977 16.3897 21.3909 14.9379 22.0608 11.0801ZM12.442 4.95697C12.6289 3.88183 13.4251 3.35863 14.0288 3.465C14.3939 3.52824 14.6009 3.83583 14.5348 4.20667C14.4945 4.44527 13.8506 5.98036 13.5861 6.62717L13.4539 6.94339C12.6145 6.52081 12.2781 5.8855 12.442 4.95409V4.95697ZM18.3725 19.2874C17.6941 23.197 14.2042 25.9136 9.71965 25.1345C6.44537 24.5653 3.41831 21.8631 3.99612 18.5284C4.27209 16.9416 6.06016 14.3199 9.87201 14.9811C9.94963 14.9954 10.0272 15.0098 10.1049 15.0242L8.62152 18.6032L12.4449 18.7498C12.4449 18.7498 12.9451 17.5568 13.6235 15.9355C14.6066 16.2775 15.1356 16.5478 15.1356 16.5478L16.4781 13.308C16.4781 13.308 15.9146 12.9803 15.0264 12.5893C15.2276 12.1092 15.4288 11.632 15.6214 11.1721C17.3089 11.1807 18.5651 10.6748 18.5651 10.6748C18.0592 13.5955 18.8641 16.4644 18.3725 19.2845V19.2874Z" fill="white"/>
<path fill-rule="evenodd" clip-rule="evenodd" d="M28.2501 13.5409C27.862 13.9922 27.1203 14.4292 26.4362 14.4292C24.9701 14.4292 24.5964 13.2333 24.6136 12.161C24.6452 10.3097 25.5852 8.50153 27.2669 8.50153C27.8678 8.50153 28.4628 8.59639 28.9688 9.30069L28.779 10.373C28.4168 9.77502 27.9166 9.58816 27.3331 9.58241C26.0366 9.56804 25.5565 11.1175 25.568 12.1869C25.5766 13.0694 25.9503 13.5006 26.5569 13.5006C26.9651 13.5006 27.2296 13.3454 27.4624 13.1154L27.6148 12.2473H26.9795L27.1433 11.4251H28.6324L28.2472 13.5409H28.2501Z" fill="white"/>
</svg>
