<svg width="85" height="15" viewBox="0 0 85 15" fill="none" xmlns="http://www.w3.org/2000/svg">
<path fill-rule="evenodd" clip-rule="evenodd" d="M50.2615 2.20651C51.868 1.92276 53.6466 2.01952 55.3171 1.82036C55.306 2.54346 54.992 3.2482 54.8314 3.96832L54.9862 4.07392L59.0453 4.04539L58.5955 5.83783L54.3891 5.90739C53.8128 7.69418 53.3719 9.54932 52.8804 11.3774C52.8884 11.8465 53.2427 12.1169 53.612 12.3195C54.893 12.3195 56.395 12.526 57.5185 12.0617L56.9877 14.1052L49.9987 14.1635C49.0464 14.008 48.0733 13.0914 47.884 12.1639L47.9238 10.8469C48.7403 7.99419 49.4728 5.08189 50.2615 2.20651ZM34.049 4.26391C35.317 6.12457 36.4821 8.01167 37.5366 9.96909C35.5678 11.4382 33.5688 12.8326 31.5789 14.2213L31.5833 14.3294L34.8587 14.2715L38.5654 11.6647C39.1228 12.4815 39.6571 13.3186 39.9565 14.2486L46.2501 14.18C46.1144 14.1441 46.0042 13.9756 45.894 13.8931L42.8293 8.64696L49.0464 4.21713L49.0406 4.11174L45.2903 4.23914C44.3561 5.44305 42.934 6.03998 41.758 6.92851C41.2422 6.0475 40.5333 5.25274 40.4062 4.21702L34.049 4.26391ZM74.712 3.99331L74.7858 4.49889L72.5318 13.1859L71.9838 14.0443H77.9329L77.8081 13.3493L79.267 7.47777C79.3266 7.13629 79.6009 6.79371 79.9229 6.64144C81.161 6.6609 82.9996 6.22697 84.1373 6.92851L84.8684 4.01277C83.0071 4.31599 80.4918 3.13198 79.4191 5.18639C79.2414 4.849 79.3405 4.40191 79.3157 3.9963L74.712 3.99331ZM16.0133 0.5L4.03345 0.55308L4.0536 1.52975L0.978 12.8792L0.131592 14.5L12.9343 14.4923C14.0925 14.5195 15.0845 14.141 15.6122 13.1825C15.9964 11.7744 16.6868 10.4499 16.5308 8.88063C16.344 8.27021 15.903 7.70723 15.3528 7.33744C15.8951 7.17953 16.4354 6.97529 16.8608 6.54479C17.769 5.34397 18.0467 3.8333 18.0831 2.34994C17.8776 1.44217 16.9521 0.655701 16.0133 0.5ZM9.52916 2.81748L12.6704 2.84469C13.1069 3.09372 12.9489 3.73134 12.8475 4.07039C12.5722 4.75567 12.5912 5.66698 11.9477 6.12247L8.34532 6.13884L9.52916 2.81748ZM7.7128 8.43907L11.0511 8.4248C11.5133 8.6296 11.3963 9.28746 11.2705 9.65161C10.8475 10.4443 11.3341 11.6645 10.4322 12.106L6.79948 12.1008C6.95449 10.8883 7.40957 9.65371 7.7128 8.43907ZM30.188 4.32506L19.6793 4.36089L18.9375 6.21381C21.4708 5.83219 24.2081 6.08686 26.7436 6.01709C26.964 6.12247 27.0775 6.35182 27.1032 6.58382C27.0011 6.90131 27.0298 7.32639 26.6614 7.50265L19.7458 7.66377L18.5409 8.25086C17.559 9.30913 17.3449 10.6707 17.2604 12.0897C17.3193 12.9157 17.8774 13.6725 18.6013 14.1053C20.2125 14.6055 22.4686 14.3598 24.3741 14.3023C24.8115 14.1878 25.098 13.7355 25.305 13.3714C25.463 13.669 25.5843 14.0029 25.6781 14.3204L30.6236 14.3433L30.4641 13.6474L31.924 8.02825C32.1523 7.30173 32.373 6.28271 31.8783 5.63347C31.5444 4.98159 30.8462 4.56735 30.188 4.32506ZM26.2861 9.47965L25.551 12.205L25.2336 12.4651L22.7372 12.5065C21.6624 11.8906 22.7036 10.6427 22.7985 9.75058L23.2036 9.48883L26.2861 9.47965ZM71.2876 4.09527L61.8026 4.04539C61.0861 4.18362 60.4416 4.61755 60.0007 5.25816C59.3447 7.38964 58.7291 9.54412 58.3602 11.7938C58.5278 12.8327 59.3249 13.8539 60.4192 14.0923L70.8325 14.0638L71.6442 11.9683L71.1245 12.1947L63.9873 12.25L63.614 12.0673C63.0407 11.3775 63.7224 10.6678 63.7957 9.96367L72.385 9.82069C72.6198 8.39561 73.5699 6.98092 72.8715 5.44316C72.5779 4.83285 71.9215 4.27253 71.2876 4.09527ZM65.22 5.93459L67.5218 5.89633C67.7367 5.95394 67.9796 6.16095 68.0529 6.39572C68.0362 6.90131 67.9406 7.39296 67.7478 7.86161L64.3636 7.92055C64.6578 7.25705 64.553 6.34883 65.22 5.93459Z" fill="white"/>
</svg>
