<svg width="69" height="13" viewBox="0 0 69 13" fill="none" xmlns="http://www.w3.org/2000/svg">
<path d="M21.7611 13L19.6514 10.3678H8.82142V7.79598H17.7225L13.0811 1.82843L4.42111 13H0.744141L10.8709 0H15.3114L25.418 13H21.7611Z" fill="white"/>
<path d="M33.7967 2.89335V13H30.9034V2.89335H20.7766V0H44.0038V2.89335H33.7967Z" fill="white"/>
<path d="M47.1785 13C46.9173 13 46.6561 12.9598 46.4351 12.8393C46.214 12.7388 46.0131 12.5981 45.8122 12.4374C45.6514 12.2566 45.4907 12.0556 45.3902 11.8346C45.2697 11.5935 45.2295 11.3524 45.2295 11.0912V1.9289C45.2295 1.68779 45.2898 1.42658 45.3902 1.18547C45.4907 0.944358 45.6313 0.74343 45.8122 0.582688C45.993 0.401854 46.1939 0.261203 46.4351 0.160739C46.6762 0.0602758 46.9173 0 47.1785 0H68.2558V2.87326H48.1429V10.0062H65.4026V7.89644H50.7751V5.26429H68.2558V13H47.1785Z" fill="white"/>
</svg>
