<svg width="51" height="29" viewBox="0 0 51 29" fill="none" xmlns="http://www.w3.org/2000/svg">
<path fill-rule="evenodd" clip-rule="evenodd" d="M0.503052 25.0276L25.5307 0L50.4969 24.9662C50.4969 24.9662 43.6828 21.0354 35.1559 22.7403C25.5307 24.6642 22.6421 28.8783 13.6181 28.9985C6.75061 29.0894 0.503052 25.0276 0.503052 25.0276Z" fill="white"/>
<path fill-rule="evenodd" clip-rule="evenodd" d="M23.2325 11.7335C23.1951 11.7335 22.7435 11.7228 22.5832 11.7068C22.3587 12.2278 20.857 14.4324 20.7554 14.5767C20.6218 14.3308 19.2296 12.161 19.0372 11.7201C18.9945 11.7201 18.4173 11.7335 18.3745 11.7335L20.4588 14.9428L19.2002 17.0912C18.6284 17.1233 17.6049 17.142 17.5301 17.1473C16.822 17.174 16.4318 17.1286 16.2875 17.1233V11.6934H15.6783L15.6409 17.5829H19.5102V17.5535C19.5289 17.5535 19.5423 17.5535 19.5476 17.5535C19.5476 17.5535 23.0882 11.9579 23.2325 11.7308V11.7335Z" fill="#13326C"/>
<path fill-rule="evenodd" clip-rule="evenodd" d="M32.9833 11.8644H32.7188L30.378 17.0886L28.6544 14.6008C29.0686 14.5046 29.2744 14.4484 29.5389 14.1866C29.8035 13.9274 29.9424 13.6468 29.9558 13.1792C29.9638 12.8398 29.8248 12.4256 29.579 12.2092C29.3332 11.9954 28.9484 11.8858 28.4219 11.8858H27.0618V16.8C26.9282 16.9042 26.7465 17.0164 26.5354 17.0912C26.2361 17.1981 25.7257 17.2088 25.397 17.2275C24.6515 17.2676 23.8685 16.8881 23.5639 16.6316C23.1043 16.2415 22.8371 15.4024 22.8371 14.5874C22.8371 14.1011 22.9787 13.6468 23.2165 13.2754C23.4998 12.8291 24.1652 12.3401 25.1672 12.2599C25.5066 12.2332 26.3804 12.3775 26.4392 12.463V11.9473C26.4392 11.9473 25.2741 11.6908 24.2988 11.9606C23.6761 12.1343 23.0402 12.5298 22.6607 13.099C22.3721 13.5292 22.2813 14.0583 22.2679 14.6702C22.2545 15.3597 22.4363 15.7926 22.6367 16.2602C22.8371 16.7278 23.2219 17.0084 23.596 17.2569C23.9701 17.5054 24.8866 17.6791 25.6135 17.6631C26.2094 17.6497 26.6663 17.5081 27.0618 17.2756V17.5909C27.1152 17.5856 27.5027 17.5856 27.5535 17.5909L27.5615 14.737L27.5535 12.2011C27.7539 12.1905 27.9383 12.2172 28.112 12.2118C28.2857 12.2065 28.438 12.2172 28.5689 12.2439C29.0793 12.3454 29.3385 12.5191 29.3385 13.1364C29.3385 13.4517 29.2583 13.7163 29.098 13.9327C28.9377 14.1465 28.7212 14.2881 28.446 14.3576C28.2429 14.4084 28.2028 14.4297 28.0051 14.4217C28.0051 14.4217 29.913 17.2783 30.0867 17.5883C30.1508 17.5829 30.6746 17.5829 30.7254 17.5883L30.7173 17.5776C30.7387 17.5776 30.7548 17.5776 30.7628 17.5776C30.8723 17.1634 31.2972 16.5247 31.7221 15.3971H33.8117C34.0763 16.0411 34.3355 16.7038 34.6374 17.6016C34.7096 17.5963 35.5299 17.5963 35.5861 17.6016L32.9833 11.8591V11.8644ZM31.8797 14.9348L32.7669 12.7463L33.6621 14.9348H31.8824H31.8797Z" fill="#13326C"/>
<path fill-rule="evenodd" clip-rule="evenodd" d="M35.4419 12.1184C35.5407 12.1798 35.6182 12.2627 35.6743 12.3669C35.7305 12.4711 35.7599 12.5833 35.7599 12.7036C35.7599 12.8238 35.7305 12.9414 35.6743 13.0456C35.6182 13.1525 35.5407 13.2354 35.4419 13.2941C35.343 13.3556 35.2361 13.385 35.1185 13.385C35.001 13.385 34.8914 13.3556 34.7925 13.2941C34.6937 13.2327 34.6162 13.1499 34.56 13.0456C34.5039 12.9414 34.4745 12.8265 34.4745 12.7036C34.4745 12.5807 34.5039 12.4711 34.56 12.3669C34.6162 12.2627 34.6937 12.1798 34.7925 12.1184C34.8914 12.0569 35.001 12.0275 35.1185 12.0275C35.2361 12.0275 35.343 12.0569 35.4419 12.1184ZM35.506 13.3984C35.6262 13.3262 35.7224 13.23 35.7919 13.1071C35.8614 12.9842 35.8961 12.8506 35.8961 12.7036C35.8961 12.594 35.8774 12.4898 35.8373 12.3936C35.7973 12.2974 35.7438 12.2119 35.6717 12.1398C35.6022 12.0676 35.5194 12.0088 35.4232 11.9687C35.3296 11.9287 35.2254 11.9073 35.1159 11.9073C35.0063 11.9073 34.9074 11.9287 34.8112 11.9687C34.715 12.0088 34.6322 12.0676 34.5627 12.1398C34.4932 12.2119 34.4371 12.2974 34.397 12.3936C34.357 12.4898 34.3383 12.594 34.3383 12.7036C34.3383 12.8506 34.373 12.9842 34.4425 13.1071C34.5119 13.23 34.6055 13.3289 34.7284 13.3984C34.8486 13.4705 34.9796 13.5053 35.1185 13.5053C35.2575 13.5053 35.3884 13.4705 35.506 13.3984ZM34.8754 13.1499C34.8754 13.1499 34.9048 13.1499 34.9235 13.1499C34.9422 13.1499 34.9582 13.1499 34.9716 13.1499C34.9849 13.1499 34.9983 13.1525 35.0116 13.1552V12.733H35.0517L35.2842 13.1552C35.3002 13.1552 35.3163 13.1552 35.3296 13.1499C35.343 13.1499 35.3617 13.1499 35.3831 13.1499C35.4045 13.1499 35.4232 13.1499 35.4392 13.1499C35.4526 13.1499 35.4686 13.1525 35.4846 13.1552L35.4339 13.0724C35.3323 12.912 35.2575 12.7918 35.2121 12.7089C35.2762 12.6929 35.3243 12.6662 35.3617 12.6261C35.3991 12.586 35.4151 12.5352 35.4151 12.4711C35.4151 12.4016 35.3938 12.3509 35.351 12.3135C35.3083 12.276 35.2468 12.2573 35.1666 12.2573H34.8326V13.1552C34.8486 13.1552 34.862 13.1552 34.8727 13.1499H34.8754ZM35.0811 12.3402C35.1265 12.3402 35.1613 12.3482 35.1853 12.3696C35.2094 12.3883 35.2227 12.4337 35.2227 12.5059C35.2227 12.6395 35.1533 12.7009 35.0143 12.6929V12.3429H35.0811V12.3402Z" fill="#13326C"/>
<path fill-rule="evenodd" clip-rule="evenodd" d="M22.0756 19.2076C22.0569 19.2798 22.0275 19.3492 21.9821 19.416C21.9394 19.4828 21.8806 19.539 21.8084 19.5817C21.7363 19.6245 21.6534 19.6459 21.5572 19.6459C21.4076 19.6459 21.282 19.5924 21.1831 19.4882C21.0843 19.384 21.0335 19.237 21.0335 19.05C21.0335 18.919 21.0549 18.8041 21.0976 18.7079C21.1404 18.6117 21.2045 18.5369 21.2873 18.4835C21.3702 18.43 21.4664 18.4033 21.5759 18.4033C21.6534 18.4033 21.7283 18.4193 21.8004 18.4541C21.8726 18.4861 21.9313 18.5316 21.9741 18.5903C22.0222 18.6518 22.0543 18.7133 22.0703 18.7801C22.0863 18.8469 22.0943 18.9244 22.0943 19.0125C22.097 19.0713 22.0917 19.1355 22.073 19.2049L22.0756 19.2076ZM21.9313 19.6191C22.0409 19.5603 22.1291 19.4775 22.1905 19.3679C22.252 19.2584 22.2841 19.1355 22.2841 18.9965C22.2841 18.8495 22.2493 18.7266 22.1825 18.6304C22.113 18.5342 22.0249 18.4594 21.9126 18.414C21.8004 18.3659 21.6828 18.3418 21.5572 18.3418C21.3542 18.3418 21.1858 18.4033 21.0495 18.5289C20.9159 18.6545 20.8464 18.8201 20.8464 19.0259C20.8464 19.2317 20.9106 19.3947 21.0415 19.5203C21.1698 19.6459 21.3408 19.7073 21.5519 19.7073C21.6935 19.7073 21.8191 19.6779 21.9313 19.6191Z" fill="#13326C"/>
<path fill-rule="evenodd" clip-rule="evenodd" d="M23.5666 18.3739V19.686H23.5078C23.4837 19.6539 23.4517 19.6165 23.4089 19.5684L22.5832 18.6518H22.5645V19.686C22.5645 19.686 22.5485 19.686 22.5405 19.6833C22.5324 19.6833 22.5218 19.6833 22.5111 19.6833C22.5004 19.6833 22.4897 19.6833 22.4817 19.6833C22.4737 19.6833 22.4656 19.6833 22.455 19.686V18.3739H22.5324L23.4437 19.36H23.4624V18.3739C23.4944 18.3739 23.5131 18.3766 23.5158 18.3766C23.5238 18.3766 23.5345 18.3766 23.5452 18.3766C23.5559 18.3766 23.5639 18.3766 23.5693 18.3766L23.5666 18.3739Z" fill="#13326C"/>
<path fill-rule="evenodd" clip-rule="evenodd" d="M23.9888 18.374V19.5898C24.0289 19.5898 24.1438 19.5898 24.3362 19.5818C24.3602 19.5818 24.4217 19.5738 24.5179 19.5631C24.5179 19.5711 24.5179 19.5791 24.5179 19.5898C24.5179 19.6005 24.5179 19.6112 24.5152 19.6192C24.5152 19.6299 24.5152 19.6379 24.5179 19.6486C24.5179 19.6593 24.5179 19.6673 24.5179 19.6753H23.8204V18.3686C23.8204 18.3686 23.8418 18.3686 23.8578 18.3686C23.8739 18.3686 23.8899 18.3686 23.9033 18.3686C23.9166 18.3686 23.9327 18.3686 23.9487 18.3686C23.9647 18.3686 23.9781 18.3686 23.9861 18.3686L23.9888 18.374Z" fill="#13326C"/>
<path fill-rule="evenodd" clip-rule="evenodd" d="M25.2903 18.9057L25.5014 18.5664C25.5522 18.4889 25.6003 18.4247 25.6377 18.374C25.627 18.374 25.6163 18.374 25.6003 18.374C25.5869 18.374 25.5735 18.374 25.5602 18.374C25.5548 18.374 25.5308 18.374 25.4854 18.3713C25.4239 18.4889 25.3518 18.6145 25.2743 18.7534C25.1968 18.8924 25.1433 18.9779 25.1166 19.0099C25.0819 18.9538 25.0231 18.8576 24.9456 18.7213C24.8681 18.5851 24.804 18.4675 24.7505 18.3686C24.7372 18.3686 24.7211 18.3686 24.7024 18.3686C24.681 18.3686 24.6623 18.3686 24.6463 18.3686C24.6276 18.3686 24.6089 18.3686 24.5875 18.3686C24.5661 18.3686 24.5501 18.3686 24.5367 18.3686L25.007 19.1275V19.6807C25.0204 19.6807 25.0338 19.6807 25.0445 19.678C25.0551 19.678 25.0712 19.678 25.0899 19.678C25.1086 19.678 25.122 19.678 25.1353 19.678C25.146 19.678 25.1594 19.678 25.1754 19.6807V19.0928C25.1994 19.034 25.2369 18.9699 25.2823 18.9004L25.2903 18.9057Z" fill="#13326C"/>
<path fill-rule="evenodd" clip-rule="evenodd" d="M26.4953 18.4434C26.6048 18.4434 26.685 18.4621 26.7411 18.4969C26.7945 18.5316 26.8239 18.5931 26.8239 18.6786C26.8239 18.7293 26.8106 18.7748 26.7865 18.8148C26.7625 18.8549 26.7251 18.887 26.677 18.9084C26.6342 18.9297 26.5915 18.9404 26.5514 18.9431C26.5113 18.9458 26.4472 18.9485 26.3563 18.9485V18.4434H26.4979H26.4953ZM26.701 19.6646C26.7598 19.6566 26.8159 19.6352 26.864 19.6005C26.9789 19.523 27.035 19.4134 27.035 19.2771C27.035 19.1756 27.0003 19.1008 26.9282 19.0527C26.8587 19.0046 26.7758 18.9805 26.685 18.9752C26.7758 18.9511 26.848 18.911 26.9041 18.8523C26.9602 18.7935 26.9869 18.7213 26.9869 18.6358C26.9869 18.5396 26.9522 18.4728 26.8827 18.4327C26.8133 18.3926 26.7064 18.3739 26.5594 18.3739H26.1826V19.6806H26.4579C26.5594 19.6806 26.6396 19.6753 26.701 19.6673V19.6646ZM26.4605 19.0179C26.5888 19.0179 26.6877 19.0393 26.7545 19.0847C26.8239 19.1302 26.8587 19.205 26.8587 19.3092C26.8587 19.3974 26.8293 19.4695 26.7678 19.5256C26.709 19.5791 26.6315 19.6085 26.5353 19.6085H26.3536V19.0179H26.4605Z" fill="#13326C"/>
<path fill-rule="evenodd" clip-rule="evenodd" d="M27.7513 19.0981V19.686C27.7379 19.686 27.7246 19.686 27.7112 19.6833C27.7005 19.6833 27.6845 19.6833 27.6658 19.6833C27.6471 19.6833 27.6311 19.6833 27.6204 19.6833C27.6097 19.6833 27.5963 19.6833 27.5803 19.686V19.1328L27.11 18.3739C27.11 18.3739 27.1394 18.3739 27.1581 18.3739C27.1795 18.3739 27.1982 18.3739 27.2169 18.3739C27.2329 18.3739 27.2516 18.3739 27.273 18.3739C27.2944 18.3739 27.3104 18.3739 27.3211 18.3739C27.3719 18.4728 27.4387 18.5904 27.5162 18.7267C27.5936 18.8629 27.6498 18.9591 27.6872 19.0153C27.7139 18.9832 27.7673 18.8977 27.8448 18.7587C27.9223 18.6198 27.9918 18.4915 28.0559 18.3766C28.0987 18.3766 28.1254 18.3793 28.1308 18.3793C28.1414 18.3793 28.1548 18.3793 28.1708 18.3793C28.1842 18.3793 28.1976 18.3793 28.2056 18.3793C28.1655 18.43 28.1201 18.4942 28.0693 18.5717L27.8582 18.911C27.8128 18.9805 27.778 19.0473 27.7513 19.1034V19.0981Z" fill="#13326C"/>
<path fill-rule="evenodd" clip-rule="evenodd" d="M29.066 18.4461C29.1061 18.4461 29.1381 18.4461 29.1648 18.4461C29.3813 18.4461 29.5309 18.4888 29.6245 18.5717C29.7153 18.6545 29.7607 18.7961 29.7607 18.9992C29.7607 19.2745 29.6672 19.4562 29.4855 19.5497C29.4401 19.5711 29.3866 19.5871 29.3252 19.5951C29.2637 19.6031 29.1996 19.6058 29.1328 19.6031C29.066 19.6031 28.9965 19.5978 28.927 19.5924V18.4514C28.9831 18.4514 29.0286 18.4461 29.0686 18.4461H29.066ZM29.1301 19.6806C29.261 19.6806 29.3706 19.6726 29.4588 19.6566C29.5496 19.6405 29.6298 19.6005 29.7019 19.5337C29.8623 19.392 29.9424 19.205 29.9424 18.9672C29.9424 18.8683 29.9264 18.7801 29.8943 18.6973C29.8623 18.6171 29.8115 18.545 29.742 18.4862C29.7046 18.4541 29.6645 18.43 29.6245 18.414C29.5844 18.398 29.5389 18.3873 29.4935 18.3819C29.4481 18.3766 29.4 18.3739 29.3465 18.3739C29.2931 18.3739 29.2423 18.3739 29.1916 18.3739H28.7587V19.6806H29.1301Z" fill="#13326C"/>
<path fill-rule="evenodd" clip-rule="evenodd" d="M30.2418 18.3739V19.1088C30.2418 19.2851 30.2712 19.4161 30.3327 19.4962C30.3941 19.5791 30.5037 19.6192 30.6587 19.6192C30.9339 19.6192 31.0702 19.4428 31.0702 19.0874V18.3739C31.0702 18.3739 31.0836 18.3739 31.0943 18.3739C31.1049 18.3739 31.1156 18.3739 31.1237 18.3739C31.1343 18.3739 31.1424 18.3739 31.153 18.3739C31.1637 18.3739 31.1718 18.3739 31.1771 18.3739V19.1355C31.1771 19.2584 31.1557 19.3653 31.1103 19.4508C31.0649 19.5363 31.0007 19.6005 30.9152 19.6432C30.8324 19.686 30.7335 19.7073 30.6213 19.7073C30.5278 19.7073 30.4503 19.6967 30.3861 19.6753C30.322 19.6539 30.2632 19.6192 30.2124 19.5737C30.159 19.5256 30.1216 19.4669 30.1056 19.3974C30.0868 19.3279 30.0762 19.2424 30.0735 19.1435V18.3766C30.0735 18.3766 30.0949 18.3766 30.1109 18.3766C30.1269 18.3766 30.143 18.3766 30.1563 18.3766C30.1697 18.3766 30.1857 18.3766 30.2017 18.3766C30.2178 18.3766 30.2311 18.3766 30.2418 18.3766V18.3739Z" fill="#13326C"/>
<path fill-rule="evenodd" clip-rule="evenodd" d="M31.8103 18.4488C31.8825 18.4568 31.9386 18.4808 31.9733 18.5262C32.008 18.5717 32.0268 18.6278 32.0268 18.6946C32.0268 18.7801 32 18.8523 31.9466 18.9084C31.8958 18.9645 31.821 18.9965 31.7248 19.0072C31.6526 19.0126 31.5885 19.0126 31.5377 19.0072V18.4461C31.6339 18.4407 31.7248 18.4407 31.8103 18.4461V18.4488ZM31.6126 19.0847C31.658 19.0847 31.6901 19.0847 31.7114 19.0847C31.7328 19.0847 31.7595 19.0821 31.7916 19.0767C31.9306 19.05 32.0321 19.0046 32.0989 18.9458C32.1657 18.887 32.1978 18.7988 32.1978 18.6866C32.1978 18.6064 32.1817 18.545 32.1523 18.4995C32.123 18.4541 32.0722 18.422 32 18.4033C31.9279 18.3846 31.8317 18.3739 31.7088 18.3739H31.3721V19.686C31.3854 19.686 31.3988 19.686 31.4095 19.6833C31.4202 19.6833 31.4335 19.6833 31.4549 19.6833C31.4763 19.6833 31.487 19.6833 31.5003 19.6833C31.5137 19.6833 31.5244 19.6833 31.5404 19.686V19.0847C31.5404 19.0847 31.5725 19.0847 31.6152 19.0874L31.6126 19.0847Z" fill="#13326C"/>
<path fill-rule="evenodd" clip-rule="evenodd" d="M33.419 19.2076C33.4003 19.2798 33.3709 19.3492 33.3254 19.416C33.2827 19.4828 33.2239 19.539 33.1544 19.5817C33.0823 19.6245 32.9994 19.6459 32.9059 19.6459C32.7589 19.6459 32.6333 19.5924 32.5345 19.4882C32.4356 19.384 32.3848 19.237 32.3848 19.05C32.3848 18.919 32.4062 18.8041 32.449 18.7079C32.4917 18.6117 32.5532 18.5369 32.636 18.4835C32.7189 18.43 32.8124 18.4033 32.9219 18.4033C32.9994 18.4033 33.0716 18.4193 33.1437 18.4541C33.2159 18.4861 33.272 18.5316 33.3174 18.5903C33.3655 18.6518 33.3976 18.7133 33.4136 18.7801C33.4297 18.8469 33.4377 18.9244 33.4377 19.0125C33.4403 19.0713 33.435 19.1355 33.4163 19.2049L33.419 19.2076ZM33.2773 19.6191C33.3869 19.5603 33.4724 19.4775 33.5312 19.3679C33.5927 19.2584 33.6221 19.1355 33.6221 18.9965C33.6221 18.8495 33.59 18.7266 33.5205 18.6304C33.4537 18.5342 33.3655 18.4594 33.2533 18.414C33.1437 18.3659 33.0262 18.3418 32.9032 18.3418C32.7028 18.3418 32.5371 18.4033 32.4035 18.5289C32.2699 18.6545 32.2031 18.8201 32.2031 19.0259C32.2031 19.2317 32.2673 19.3947 32.3955 19.5203C32.5238 19.6459 32.6921 19.7073 32.9006 19.7073C33.0422 19.7073 33.1678 19.6779 33.2747 19.6191H33.2773Z" fill="#13326C"/>
<path fill-rule="evenodd" clip-rule="evenodd" d="M34.8192 18.3739C34.8192 18.3739 34.8005 18.3739 34.7925 18.3739C34.7898 18.3739 34.7711 18.3739 34.7363 18.3713V19.3573H34.7176L33.8171 18.3713H33.7396V19.6833C33.7396 19.6833 33.7583 19.6833 33.7637 19.6806C33.7717 19.6806 33.7797 19.6806 33.7931 19.6806C33.8038 19.6806 33.8144 19.6806 33.8225 19.6806C33.8305 19.6806 33.8385 19.6806 33.8465 19.6833V18.6492H33.8652L34.6829 19.5657C34.7257 19.6138 34.7604 19.6513 34.7844 19.6833H34.8406V18.3713C34.8406 18.3713 34.8245 18.3713 34.8138 18.3713L34.8192 18.3739Z" fill="#13326C"/>
<path fill-rule="evenodd" clip-rule="evenodd" d="M35.4979 18.4648V19.6886C35.4819 19.6886 35.4712 19.6886 35.4579 19.686C35.4445 19.686 35.4311 19.686 35.4124 19.686C35.3937 19.686 35.3804 19.686 35.3697 19.686C35.359 19.686 35.3456 19.686 35.3323 19.6886V18.4648C35.1987 18.4648 35.0597 18.4728 34.9154 18.4862C34.9154 18.4808 34.9154 18.4728 34.9181 18.4675C34.9181 18.4594 34.9181 18.4541 34.9181 18.4488C34.9181 18.4434 34.9181 18.4381 34.9181 18.43C34.9181 18.4194 34.9181 18.4087 34.9181 18.4007C34.9181 18.3926 34.9181 18.3846 34.9154 18.3739H35.8961C35.8961 18.3739 35.8961 18.39 35.8961 18.4007C35.8961 18.4113 35.8961 18.4194 35.8934 18.43C35.8934 18.4407 35.8961 18.4514 35.8961 18.4621C35.8961 18.4728 35.8961 18.4835 35.8961 18.4862C35.7705 18.4728 35.6369 18.4648 35.4979 18.4648Z" fill="#13326C"/>
</svg>
