<svg width="27" height="29" viewBox="0 0 27 29" fill="none" xmlns="http://www.w3.org/2000/svg">
<path d="M10.9207 28.2781C11.1462 28.2781 11.5337 28.2051 11.8386 27.7166C11.6644 27.329 11.5402 26.546 11.5223 26.2612C11.4325 24.8028 11.9943 23.4311 12.6095 23.3936C13.06 23.3664 13.4208 23.7929 13.4623 24.484C13.5729 26.3009 12.9681 27.0596 12.6653 27.7134C12.7165 27.9671 13.1463 28.3991 13.5525 28.3991C13.7024 28.3991 13.8839 28.3239 13.9293 28.2631C13.8989 28.1586 13.8685 28.0229 13.8685 27.8268C13.8685 26.774 14.5456 25.8865 15.1321 25.8865C15.5984 25.8865 15.8689 26.5031 15.8689 26.91C15.8689 27.3906 15.4628 27.7825 14.8616 28.1586C14.9671 28.2631 15.1618 28.3393 15.3279 28.3393C16.1857 28.3393 16.6348 27.3011 16.9672 26.3531C17.0274 26.172 17.1329 25.9165 17.343 25.9165C17.7044 25.9165 17.8551 28.2931 18.4553 28.2931C18.7115 28.2931 18.9219 27.7663 18.9219 27.3612C18.9219 27.0603 18.8167 27.0302 18.8167 26.5936C18.8167 26.113 19.0726 25.7072 19.419 25.7072C19.6294 25.7072 19.7053 25.9165 19.7053 26.172C19.7053 27.1347 19.0128 28.9248 17.9911 28.9248C17.2228 28.9248 17.2829 27.6014 17.0123 27.6014C16.7103 27.6014 16.2891 28.9402 14.8014 28.9402C14.5595 28.9402 14.3047 28.8199 14.0946 28.5787C13.7339 28.8199 13.4322 28.9248 13.0862 28.9248C12.5304 28.9248 12.2896 28.3533 12.0641 28.3533C11.7928 28.3533 11.4929 28.9402 10.5897 28.9402C9.86786 28.9402 9.74726 27.9782 9.49246 27.9782C9.26629 27.9782 8.92059 28.9402 8.54483 28.9402C7.91212 28.9402 7.77792 27.2707 7.22072 27.2707C6.78448 27.2707 5.40633 28.9663 5.03236 28.9276C4.88169 28.9119 4.81871 28.7992 4.83446 28.6489C4.85557 28.4409 5.0345 27.8841 5.10751 27.6203C5.22918 27.163 5.34084 26.6616 5.40311 26.5016C5.46502 26.3406 5.63214 26.2254 5.76599 26.2379C5.83362 26.2443 5.85402 26.3703 5.87478 26.4741C5.95064 26.8459 6.05693 27.2253 6.17646 27.2253C6.3876 27.2253 7.08544 25.8865 7.49127 25.8865C7.98834 25.8865 8.04811 27.9925 8.72412 27.9925C8.95029 27.9925 9.11634 27.7223 9.26629 27.3906C9.28168 26.833 9.43162 26.0378 9.88289 26.0378C10.1992 26.0378 10.3499 26.7439 10.1234 27.3612C10.1234 28.0977 10.6044 28.2781 10.9207 28.2781ZM22.9526 26.4737C22.7661 27.2467 22.2011 28.384 21.3579 28.384C21.1629 28.384 20.8165 28.3085 20.8165 28.1128C20.8165 27.902 22.1409 27.873 22.1409 26.8645C22.1409 26.4891 21.7952 25.962 21.2835 25.962C20.6068 25.962 19.9465 26.6995 19.9465 27.7223C19.9465 28.6392 20.5162 28.9402 21.0874 28.9402C22.0808 28.9402 22.682 28.1271 22.9977 27.4507C23.1487 27.902 23.2378 28.9402 23.615 28.9402C23.7649 28.9402 23.8709 28.8646 24.0519 28.4592C24.5014 27.4507 24.938 26.293 25.5403 26.293C25.7654 26.293 25.6305 26.6995 26.172 26.6995C26.4271 26.6995 26.6068 26.4891 26.6068 26.2472C26.6068 25.9011 26.2915 25.6313 25.8105 25.6313C24.3969 25.6313 24.0967 27.752 23.8709 27.752C23.4944 27.752 23.615 26.0525 23.3437 26.0525C23.1029 26.0525 22.9848 26.3395 22.9526 26.4737ZM12.9752 24.8898C12.9491 24.4697 12.8475 24.28 12.6217 24.295C12.3221 24.3133 12.1836 25.2559 12.2448 26.2461C12.2838 26.8924 12.3801 26.9919 12.4696 26.9858C12.6353 26.9762 13.0328 25.8213 12.9752 24.8898ZM10.5292 24.0066C10.5081 23.7657 10.3191 23.6011 10.0633 23.6011C9.77768 23.6011 9.50892 23.9007 9.53755 24.2771C9.5558 24.5248 9.70217 24.7291 9.98918 24.7291C10.3191 24.7291 10.5596 24.353 10.5292 24.0066ZM15.2076 27.0746C15.2076 26.8194 15.0716 26.609 14.9074 26.609C14.7707 26.609 14.4557 26.7586 14.4557 27.2403C14.4557 27.6175 14.5899 27.7964 14.6511 27.873C15.0866 27.7374 15.2076 27.3756 15.2076 27.0746ZM21.0874 26.5646C21.4037 26.5646 21.4943 26.939 21.4191 27.1651C21.3432 27.3906 21.0731 27.6472 20.6518 27.7223C20.5613 27.4962 20.5162 26.5646 21.0874 26.5646ZM3.76944 25.4968C3.72614 25.36 3.60124 25.0526 3.56689 24.8258C3.49174 24.3233 3.75441 23.9923 3.99561 23.9164C4.26652 23.8409 4.37209 23.9765 4.47659 24.2929C4.61222 24.7739 4.62725 25.4051 4.5818 26.3077C4.5224 27.5413 3.90543 29.0303 2.37161 28.9996C1.0475 28.9706 0.461672 28.1128 0.400835 26.8044C0.372205 26.1878 0.415865 25.5715 0.67174 24.6991C0.807014 24.2324 0.927974 24.0664 1.34847 23.9765C1.67914 23.9164 1.64943 24.2618 1.57428 24.6694C1.40931 25.5715 1.33308 26.0071 1.39392 27.0302C1.45297 28.1128 1.9504 28.5343 2.49186 28.5343C3.30386 28.5497 3.66459 27.873 3.81561 26.8946C3.93514 26.113 3.84531 25.7369 3.76944 25.4968Z" fill="white"/>
<path d="M21.5087 5.92949C21.6128 6.68746 22.7612 7.70917 23.0725 7.68519C23.2805 7.6673 23.3603 6.69533 23.3603 5.92949C23.3603 5.49075 23.3842 5.1472 23.1527 5.06703C22.7852 5.80961 21.8204 5.96135 21.5087 5.92949ZM21.5724 5.59417C22.4015 5.59417 23.1606 4.93176 23.1606 4.34915C23.1606 4.07753 23.0325 3.85422 22.7054 3.8145C22.7612 3.88643 22.7852 3.94226 22.7852 4.06966C22.7852 4.50876 22.116 4.99582 21.3891 4.99582C21.1254 4.99582 21.0456 5.17905 21.0456 5.27495C21.0456 5.49862 21.2614 5.59417 21.5724 5.59417ZM21.397 4.69235C21.2853 4.69235 21.1254 4.69235 21.0373 4.51699C20.9654 4.37313 20.9894 4.14159 20.8538 4.03781C20.9894 4.07753 21.1333 4.07753 21.2453 4.07753C21.6049 4.07753 21.9485 3.83024 22.2119 3.83024C22.3858 3.83024 22.4416 3.94226 22.4416 4.05355C22.4416 4.40534 21.7327 4.69235 21.397 4.69235Z" fill="white"/>
<path d="M3.5448 10.9493C3.8157 10.9493 3.75988 9.28912 4.19898 9.28912C4.30276 9.28912 4.33461 9.3929 4.33461 9.52066C4.33461 9.8957 4.15103 10.4465 4.15103 10.7496C4.15103 10.9013 4.19075 10.9493 4.26268 10.9493C4.4545 10.9493 4.78946 9.12128 5.11691 9.12128C5.22069 9.12128 5.26829 9.22506 5.26829 9.3292C5.26829 9.71212 4.78159 10.8133 4.78159 11.1246C4.78159 11.1722 4.79769 11.2123 4.83742 11.2123C5.03711 11.2123 5.43613 10.3506 5.56353 9.91968C5.63546 9.69601 5.73137 9.57613 5.81905 9.57613C5.89885 9.57613 5.97078 9.66416 5.97078 9.84775C5.97078 10.2786 5.5714 11.2921 5.22069 11.971C4.94943 12.4974 4.52643 13.2554 4.52643 13.6784C4.52643 13.8938 4.56579 14.1171 4.8775 14.3887C4.36646 14.3569 4.1589 14.3089 3.9678 13.9099C3.11393 15.6098 5.53991 15.4423 4.70966 16.9503C4.55792 16.6794 3.36085 16.3999 3.36085 14.8196C3.36085 13.4551 4.55792 12.657 4.55792 12.0901C4.55792 11.9789 4.51856 11.8829 4.41442 11.7949C4.15103 11.5712 4.14279 11.3884 3.93595 11.3884C3.78385 11.3884 3.60027 11.7391 3.79173 12.0504C3.85578 12.1542 3.91161 12.2179 3.91161 12.3138C3.91161 12.5371 3.56019 13.1355 3.31326 13.1355C3.06597 13.1355 2.87451 12.5217 2.87451 11.5315C2.87451 10.6537 3.07384 9.76794 3.32113 9.76794C3.39306 9.76794 3.41704 9.8159 3.41704 9.8796C3.41704 9.98338 3.38519 10.1909 3.38519 10.5417C3.38519 10.9171 3.47287 10.9493 3.5448 10.9493Z" fill="white"/>
<path d="M5.57955 13.2873C5.91523 13.2873 6.19401 13.0396 6.19401 12.4896V11.6751C6.19401 11.3641 6.21799 11.013 6.42591 10.7654C6.40193 10.8692 6.40193 10.9812 6.40193 11.0846C6.40193 11.771 6.78485 12.242 6.78485 12.9044C6.78485 13.1513 6.71292 13.2873 6.52182 13.2873C6.33788 13.2873 6.35398 13.1194 6.3139 13.1194C6.28205 13.1194 6.23409 13.2232 6.23409 13.3352C6.23409 13.5027 6.35398 13.7661 6.68894 13.7661C6.97667 13.7661 7.20785 13.5027 7.20785 13.2075C7.20785 12.4896 6.64922 11.6912 6.64922 10.9254C6.64922 10.5897 6.7369 10.3664 6.80883 10.1907C6.80883 11.7792 8.15763 12.9362 8.15763 13.5983C8.15763 13.75 8.04598 13.8699 7.8785 13.8699C7.69455 13.8699 7.60687 13.726 7.60687 13.614C7.60687 13.5582 7.59864 13.5424 7.57502 13.5424C7.52743 13.5424 7.38356 13.7021 7.38356 13.91C7.38356 14.173 7.59864 14.4926 7.99802 14.4926C8.45252 14.4926 8.70016 14.109 8.70016 13.7661C8.70016 12.9283 7.06399 11.6593 7.06399 10.3027C7.06399 10.0711 7.10371 9.69608 7.27155 9.40872C6.21799 10.0869 5.89126 10.9891 5.89126 11.7792C5.89126 12.4656 5.86728 12.8081 5.51621 12.8081C5.33227 12.8081 5.28467 12.641 5.22061 12.641C5.17266 12.641 5.14868 12.7845 5.14868 12.8242C5.14868 13.1194 5.36448 13.2873 5.57955 13.2873Z" fill="white"/>
<path d="M19.4105 5.31494C19.7619 5.31494 20.0256 5.15534 20.0256 5.05943C20.0256 5.02793 19.9777 5.0036 19.8735 5.0036C19.7698 5.0036 19.5622 4.99573 19.1707 4.93203C18.835 4.87584 18.5795 4.74844 18.4836 4.74844C18.4517 4.74844 18.4356 4.76419 18.4356 4.78816C18.4356 4.99573 18.8193 5.31494 19.4105 5.31494ZM17.6709 4.30146C17.7721 4.23347 18.2216 4.34119 18.8035 4.05382C18.8751 4.0141 18.947 3.99799 19.0107 3.99799C19.2906 3.99799 19.2183 4.31721 19.4745 4.31721C19.6739 4.31721 19.9297 4.14937 20.0815 4.14937C20.3194 4.14937 20.6626 4.89982 20.6626 5.25089C20.6626 5.65814 20.0496 5.90543 19.3224 5.90543C18.2621 5.90543 17.6226 4.97998 17.6226 4.38127C17.6226 4.33331 17.6469 4.31721 17.6709 4.30146Z" fill="white"/>
<path d="M5.7473 16.2958C5.48427 16.3599 5.06091 16.7743 5.06091 17.4296C5.06091 18.2115 5.89904 19.4168 7.27969 19.4168C8.44455 19.4168 8.73192 18.6109 8.73192 18.0676C8.73192 16.8623 7.99006 16.0164 7.02453 16.0164C6.49775 16.0164 6.0268 16.4 6.0268 16.9661C6.0268 17.4933 6.42582 18.2831 7.3756 18.2831C7.82258 18.2831 8.08561 17.9639 8.08561 17.5971C8.08561 17.2378 7.75852 16.7432 7.27969 16.7432C7.13583 16.7432 7.03241 16.8384 7.03241 16.9901C7.03241 17.1816 7.2958 17.3734 7.62289 17.3734C7.70269 17.3734 7.76639 17.3576 7.7986 17.3415C7.81435 17.3655 7.82258 17.4056 7.82258 17.4374C7.82258 17.621 7.64651 17.733 7.3756 17.733C6.96871 17.733 6.5772 17.4296 6.5772 16.95C6.5772 16.6634 6.82484 16.4558 7.18378 16.4558C7.89415 16.4558 8.31715 17.086 8.31715 17.7169C8.31715 18.2831 8.00616 18.6109 7.36773 18.6109C6.0905 18.6109 5.46817 17.4614 5.7473 16.2958Z" fill="white"/>
<path d="M14.2385 19.377C14.2385 19.5527 14.3824 19.6962 14.5578 19.6962C14.7335 19.6962 14.877 19.5527 14.877 19.377C14.877 19.2012 14.7335 19.0574 14.5578 19.0574C14.3824 19.0574 14.2385 19.2012 14.2385 19.377ZM14.8573 20.972C15.2399 20.972 15.2202 20.9401 15.3401 20.9401C15.4596 20.9401 15.4678 21.012 15.4678 21.06C15.4678 21.2357 15.0763 21.4515 14.3824 21.4515C13.9751 21.4515 13.7279 21.2357 13.6559 20.9963C13.2573 21.2515 12.6507 21.483 12.052 21.483C10.4162 21.483 10.001 20.7723 9.49035 20.5415C9.09884 20.3657 8.50049 20.7093 7.66272 19.7753C7.77437 19.7992 7.92611 19.8075 8.046 19.8075C8.77962 19.8075 9.17077 19.4485 9.17077 18.8734C9.17077 18.8015 9.1629 18.7228 9.15467 18.6512C9.37834 18.7389 9.88937 19.1214 10.0089 19.7992C10.025 19.8794 10.3521 19.951 10.5593 19.951C10.847 19.951 11.2142 19.8311 11.2697 19.3608C12.2277 19.281 12.8743 18.7145 13.01 17.9956C13.3528 18.1076 13.7436 18.4189 13.8395 18.5789C13.9751 18.531 14.1348 18.507 14.3183 18.507C14.5735 18.507 14.8612 18.5549 15.2041 18.6591C15.2202 18.5549 15.2363 18.4272 15.3959 18.4272C15.6353 18.4272 15.5712 18.6906 15.651 18.8416C15.6911 18.9214 15.8912 18.9693 15.8912 19.1289C15.8912 19.281 15.7627 19.3369 15.6833 19.3369C15.651 19.3369 15.6113 19.329 15.587 19.3211C15.4277 19.377 15.4199 20.5257 14.7492 20.5257C14.2546 20.5257 13.7998 20.1188 13.6001 19.6085C13.5439 19.4568 13.4247 19.3608 13.3127 19.3608C13.1853 19.3608 13.1134 19.3848 12.962 19.5527C12.5312 20.0229 11.8126 20.4298 10.9268 20.4298C10.6552 20.4298 10.4401 20.4058 10.3839 20.4058C10.3521 20.4058 10.3521 20.4137 10.3521 20.4216C10.3521 20.4778 10.6234 20.6935 11.2142 20.6935C12.6185 20.6935 12.962 19.903 13.1853 19.903C13.2172 19.903 13.3127 19.903 13.3686 20.0308C13.6957 20.7963 14.4103 20.972 14.8573 20.972Z" fill="white"/>
<path d="M19.6978 15.8888C19.5303 15.8888 18.6031 17.1259 18.0062 17.1259C17.8623 17.1259 17.7428 16.8543 17.7428 16.6478C17.7428 16.5358 17.814 16.456 18.0702 16.4002C19.4423 16.0885 19.1388 15.0589 20.3112 15.0589C20.9575 15.0589 21.6765 15.498 21.6765 16.4878C21.6765 17.5414 20.177 18.8498 19.9533 18.8498C19.7694 18.8498 19.5701 18.5867 19.5701 18.411C19.5701 18.3555 19.594 18.2833 19.7537 18.2196C20.5188 17.9157 20.9575 17.2139 20.9575 16.8543C20.9575 16.7745 20.9178 16.6958 20.8137 16.6958C20.6784 16.6958 20.0972 18.0199 19.4502 18.0199C19.0028 18.0199 18.5476 17.6133 18.5476 17.4215C18.5476 17.1023 19.8413 16.5118 19.8413 16.0645C19.8413 15.8966 19.7619 15.8888 19.6978 15.8888ZM20.5585 15.3942C20.4468 15.3942 20.3273 15.4822 20.3273 15.698C20.3273 15.9367 20.5109 16.0885 20.6147 16.1364C20.6705 16.1683 20.7585 16.2005 20.8455 16.2005C21.0774 16.2005 21.261 16.1364 21.261 15.9446C21.261 15.698 20.9017 15.3942 20.5585 15.3942Z" fill="white"/>
<path d="M5.65151 6.15258C5.65151 6.32829 5.79537 6.47215 5.97108 6.47215C6.14644 6.47215 6.28994 6.32829 6.28994 6.15258C6.28994 5.97722 6.14644 5.83336 5.97108 5.83336C5.79537 5.83336 5.65151 5.97722 5.65151 6.15258ZM5.23674 5.43434C5.23674 5.60969 5.38024 5.75355 5.5556 5.75355C5.73131 5.75355 5.87517 5.60969 5.87517 5.43434C5.87517 5.25898 5.73131 5.11512 5.5556 5.11512C5.38024 5.11512 5.23674 5.25898 5.23674 5.43434ZM4.94937 7.62091C4.76543 7.66886 4.38286 7.89253 4.38286 8.29119C4.38286 8.57856 4.60582 8.76215 4.88567 8.76215C5.02917 8.76215 5.13296 8.7303 5.19666 8.68234C4.97335 8.46691 4.89354 8.22749 4.89354 7.98844C4.89354 7.8206 4.91752 7.71682 4.94937 7.62091ZM2.99434 7.73292C2.98647 7.773 2.98647 7.81273 2.98647 7.85245C2.98647 8.22749 3.1858 8.43506 3.44919 8.43506C3.64816 8.43506 3.88006 8.31517 4.08727 8.05178C3.99959 8.06753 3.89581 8.0754 3.7999 8.0754C3.50502 8.0754 3.1858 7.99631 2.99434 7.73292ZM2.71484 8.44293C2.71484 9.04952 2.89843 9.33688 3.22552 9.33688C3.48104 9.33688 3.82423 9.1533 4.23077 8.80223C3.91978 8.87416 3.68037 8.92176 3.46493 8.92176C3.17757 8.92176 2.95462 8.8101 2.71484 8.44293ZM4.78189 5.25075C4.82161 5.12299 4.85346 4.96374 4.85346 4.78803C4.85346 4.40511 4.67775 3.82214 4.13522 3.82214C3.82423 3.82214 3.60021 4.06943 3.60021 4.36503C3.60021 4.99559 4.23077 5.25075 4.78189 5.25075ZM4.10301 7.26197C3.83998 7.26197 3.55261 6.93488 3.55261 6.63963C3.55261 6.48003 3.67214 6.28034 3.76018 6.28034C3.79203 6.28034 3.80813 6.30431 3.816 6.3605C3.86396 6.75129 4.11912 6.97496 4.35889 7.08625C4.38287 7.10236 4.39861 7.11023 4.39861 7.12633C4.39861 7.18216 4.24688 7.26197 4.10301 7.26197ZM4.83771 6.28821C4.89283 6.36336 5.04528 6.45605 5.04528 6.51188C5.04528 6.62353 4.98122 6.76739 4.85346 6.76739C4.57397 6.76739 4.35066 6.34439 4.35066 6.10462C4.35066 5.95324 4.43869 5.9375 4.55786 5.9375C4.61405 5.9375 4.63767 5.94537 4.67775 5.96935C4.74968 6.00907 4.74968 6.16868 4.83771 6.28821ZM2.96249 7.27807C2.94746 7.30276 2.93851 7.3339 2.93851 7.36611C2.93851 7.43768 3.01832 7.51748 3.08989 7.51748C3.15395 7.51748 3.19367 7.50174 3.22552 7.50174C3.41698 7.50174 3.63242 7.63701 3.94376 7.63701C4.12699 7.63701 4.34278 7.58118 4.61405 7.44591C5.18843 7.15819 5.41245 6.44818 5.41245 6.32829C5.41245 6.17655 5.29042 6.19624 5.18843 6.05667C5.08679 5.91782 5.1258 5.79435 5.06102 5.72958C5.02381 5.69236 4.90965 5.68985 4.76543 5.67375C4.71747 5.66838 4.65377 5.66588 4.59007 5.66588C4.32668 5.66588 4.01462 5.69809 3.66427 5.92139C2.97179 6.363 3.07379 7.09448 2.96249 7.27807ZM5.61178 6.95885C5.43607 7.16606 5.25248 7.51748 5.25248 7.87643C5.25248 8.3073 5.51623 8.66624 5.92313 8.66624C6.31392 8.66624 6.49751 8.33128 6.49751 7.98844C6.49751 7.45378 6.0108 7.07838 5.61178 6.95885ZM3.90404 5.42646C3.90404 5.42646 3.67214 5.60182 3.38513 5.60182C3.04229 5.60182 2.77067 5.34666 2.77067 4.98772C2.77067 4.74007 2.89843 4.48491 3.19367 4.35715C3.1858 4.40511 3.1858 4.44483 3.1858 4.49279C3.1858 4.94764 3.44096 5.29083 3.90404 5.42646Z" fill="white"/>
<path d="M17.9741 8.07563C17.9741 8.25958 18.1262 8.41131 18.3076 8.41131C18.4915 8.41131 18.6433 8.25958 18.6433 8.07563C18.6433 7.8924 18.4915 7.74102 18.3076 7.74102C18.1262 7.74102 17.9741 7.8924 17.9741 8.07563ZM17.998 9.08124C17.998 9.28916 18.1659 9.45664 18.372 9.45664C18.5796 9.45664 18.7474 9.28916 18.7474 9.08124C18.7474 8.87403 18.5796 8.70655 18.372 8.70655C18.1659 8.70655 17.998 8.87403 17.998 9.08124ZM16.8482 9.75976C16.8482 10.0629 17.0955 10.3105 17.3993 10.3105C17.7024 10.3105 17.9504 10.0629 17.9504 9.75976C17.9504 9.45664 17.7024 9.209 17.3993 9.209C17.0955 9.209 16.8482 9.45664 16.8482 9.75976ZM17.1434 8.63462C17.1434 8.81033 17.287 8.95384 17.463 8.95384C17.6387 8.95384 17.7822 8.81033 17.7822 8.63462C17.7822 8.45927 17.6387 8.3154 17.463 8.3154C17.287 8.3154 17.1434 8.45927 17.1434 8.63462ZM16.0985 9.27306C16.0985 9.44877 16.2423 9.59192 16.4163 9.59192C16.5923 9.59192 16.7362 9.44877 16.7362 9.27306C16.7362 9.09734 16.5923 8.95384 16.4163 8.95384C16.2423 8.95384 16.0985 9.09734 16.0985 9.27306ZM16.9198 7.40606C16.9198 7.6852 17.1513 7.91638 17.4308 7.91638C17.7107 7.91638 17.9422 7.6852 17.9422 7.40606C17.9422 7.12621 17.7107 6.89503 17.4308 6.89503C17.1513 6.89503 16.9198 7.12621 16.9198 7.40606ZM17.5189 6.42407C17.5189 6.59155 17.6545 6.72719 17.8223 6.72719C17.9902 6.72719 18.1262 6.59155 18.1262 6.42407C18.1262 6.25659 17.9902 6.1206 17.8223 6.1206C17.6545 6.1206 17.5189 6.25659 17.5189 6.42407ZM16.0749 7.19027C16.0749 7.35811 16.2105 7.49374 16.3765 7.49374C16.5444 7.49374 16.68 7.35811 16.68 7.19027C16.68 7.02278 16.5444 6.88715 16.3765 6.88715C16.2105 6.88715 16.0749 7.02278 16.0749 7.19027ZM16.0348 8.22737C16.0348 8.49899 16.2506 8.71443 16.52 8.71443C16.7917 8.71443 17.0078 8.49899 17.0078 8.22737C17.0078 7.95646 16.7917 7.74102 16.52 7.74102C16.2506 7.74102 16.0348 7.95646 16.0348 8.22737ZM15.0288 8.7384C15.0288 8.98605 15.236 9.19289 15.4837 9.19289C15.7309 9.19289 15.9389 8.98605 15.9389 8.7384C15.9389 8.49112 15.7309 8.28355 15.4837 8.28355C15.236 8.28355 15.0288 8.49112 15.0288 8.7384ZM15.3001 7.61327C15.3001 7.78862 15.4439 7.93248 15.6189 7.93248C15.795 7.93248 15.9389 7.78862 15.9389 7.61327C15.9389 7.43791 15.795 7.29405 15.6189 7.29405C15.4439 7.29405 15.3001 7.43791 15.3001 7.61327ZM18.1018 10.0711C18.1018 9.91149 18.2457 9.77586 18.4035 9.77586C18.5796 9.77586 18.7152 9.91149 18.7152 10.0711C18.7152 10.2547 18.5796 10.3824 18.4035 10.3824C18.2457 10.3824 18.1018 10.2547 18.1018 10.0711Z" fill="white"/>
<path d="M18.3078 19.2491C18.3479 19.2491 18.3958 19.2727 18.3958 19.4169C18.3958 19.5923 18.316 19.8234 18.0301 20.007C17.8304 20.1427 17.5588 20.2547 17.1594 20.2618C17.2231 20.0707 17.2711 19.871 17.2711 19.6803C17.2711 19.6162 17.2635 19.5683 17.2553 19.4967H17.3595C17.99 19.4967 18.262 19.2491 18.3078 19.2491ZM18.3719 18.4589C18.4366 18.4041 18.4517 18.3154 18.4517 18.2274V18.0438C18.4517 17.8122 18.102 17.677 17.6225 17.677C17.0395 17.677 16.7282 17.9396 16.7282 18.0516V18.4192C16.7282 18.5709 17.0796 18.7226 17.5108 18.7226C17.8544 18.7226 18.1661 18.635 18.3719 18.4589ZM18.787 18.5469C18.5794 18.7069 18.0942 19.0651 17.2872 19.0651C16.8559 19.0651 16.6641 18.9295 16.6001 18.9295C16.5203 18.9295 16.4322 19.0093 16.3445 19.1134C16.1549 19.3371 15.9072 19.7522 15.9072 20.2067C15.9072 20.5259 16.1549 20.8441 16.6162 20.8441C18.1099 20.8441 19.2264 19.9108 19.2264 19.1532C19.2264 18.7226 18.9713 18.5469 18.787 18.5469Z" fill="white"/>
<path d="M19.0668 11.835C19.0668 12.0344 19.1308 12.2659 19.3305 12.2659C19.498 12.2659 19.6419 12.0108 19.6419 11.7313C19.6419 11.412 19.586 11.1644 19.586 11.0366C19.586 10.9812 19.61 10.9572 19.6419 10.9572C19.7617 10.9651 19.8737 11.2922 20.0015 11.2922C20.1454 11.2922 20.3594 11.0288 20.4471 11.0288C20.471 11.0288 20.4789 11.0606 20.4789 11.0685C20.4789 11.1884 20.2953 11.4521 20.2953 11.5556C20.2953 11.6432 20.7584 11.6593 20.7584 11.7391C20.7584 11.859 20.2731 11.859 20.0416 11.9628C19.8179 12.0584 19.6819 12.1782 19.6819 12.3379C19.6819 12.4975 19.8415 12.529 20.0656 12.529C20.5988 12.529 20.9738 12.2419 21.0934 12.2419C21.1173 12.2419 21.1331 12.258 21.1331 12.282C21.1331 12.3618 20.8618 12.6249 20.8618 12.7447C20.8618 12.8804 21.3571 13.0396 21.3492 13.1194C21.3414 13.1434 21.3092 13.1513 21.2533 13.1513C21.1653 13.1513 21.0297 13.1277 20.9255 13.1277C20.8618 13.1277 20.806 13.1355 20.7817 13.1674C20.7265 13.2314 20.7978 13.6541 20.6868 13.6541C20.5827 13.6541 20.3111 12.7129 19.698 12.7129C19.61 12.7129 19.5463 12.7845 19.5463 12.9044C19.5463 13.2232 19.8576 13.5904 20.1532 13.7661C20.2871 13.8538 20.5111 13.9418 20.5111 13.9898C20.5111 14.085 20.0015 13.9976 20.0015 14.1569C20.0015 14.3008 20.0656 14.5165 20.0656 14.644C20.0656 14.684 20.0573 14.7316 20.0094 14.7316C19.9138 14.7316 19.6819 14.2929 19.5699 14.2929C19.4744 14.2929 19.2668 14.5559 19.1784 14.5559C19.1548 14.5559 19.139 14.5319 19.139 14.5087C19.139 14.3247 19.4343 13.91 19.4343 13.5027C19.4343 13.3113 19.4103 12.8961 19.1784 12.8961C18.987 12.8961 18.7712 13.1992 18.6753 13.5027C18.6194 13.6781 18.6595 14.3566 18.5317 14.3566C18.4119 14.3566 18.4437 13.9017 18.2837 13.9017C18.166 13.9017 17.9105 14.1172 17.8225 14.1172C17.8067 14.1172 17.7906 14.1089 17.7906 14.0932C17.7906 13.9976 18.0221 13.6863 18.0221 13.6222C18.0221 13.5027 17.495 13.487 17.495 13.3911C17.495 13.3352 17.7026 13.2951 17.8944 13.2633C18.3002 13.1914 18.8993 12.8961 18.8993 12.4817C18.8993 12.0186 18.4516 11.8189 18.1581 11.6271C18.006 11.5316 17.8386 11.4521 17.8386 11.3881C17.8386 11.324 18.0304 11.324 18.1102 11.324C18.2297 11.324 18.3482 11.3161 18.3482 11.2206C18.3482 11.1483 18.3317 11.0052 18.3317 10.8935C18.3317 10.8133 18.3399 10.7493 18.3721 10.7493C18.4917 10.7493 18.6595 11.1404 18.7393 11.1404C18.8671 11.1404 19.0428 10.8212 19.163 10.8212C19.2024 10.8212 19.2185 10.8455 19.2185 10.9171C19.2185 11.2124 19.0668 11.5473 19.0668 11.835ZM15.2601 9.49674C15.3482 10.1749 16.2586 9.8317 16.2586 10.6537C16.2586 10.7736 16.2267 10.9493 16.2267 11.1003C16.2267 11.2764 16.2425 11.4282 16.3767 11.4282C16.5123 11.4282 16.5445 11.3322 16.5445 11.2045C16.5445 11.0764 16.5123 10.9171 16.5123 10.8294C16.5123 10.5499 16.712 10.4862 16.8319 10.4862C17.1357 10.4862 17.3672 10.7976 17.8225 10.7976C17.7187 11.3083 16.664 11.1723 16.664 11.7313C16.664 12.0108 16.9439 12.0741 17.1275 12.0741C17.2953 12.0741 17.3515 12.0501 17.3515 11.907C17.3515 11.8268 17.335 11.7391 17.335 11.6833C17.335 11.6511 17.3594 11.6193 17.3995 11.6193C17.5752 11.6193 18.4358 12.2738 18.4358 12.4735C18.4358 12.6567 17.5269 12.8403 17.2635 12.8403C17.1837 12.8403 17.1676 12.7845 17.1676 12.7526C17.1676 12.6968 17.3032 12.529 17.3032 12.4334C17.3032 12.3618 17.1837 12.3139 16.8637 12.3139C16.712 12.3139 16.6003 12.3296 16.6003 12.4499C16.6003 12.6649 16.9518 12.9283 16.9518 13.1277C16.9518 13.2873 16.8559 13.3832 16.6003 13.3832C16.3845 13.3832 16.0589 13.2153 16.0589 12.9362C16.0589 12.7129 16.289 12.4896 16.289 12.354C16.289 12.3139 16.2586 12.2498 16.1627 12.2498C15.8671 12.2498 15.7873 13.0318 14.7412 13.1194C14.9091 12.9681 15.0526 12.8006 15.0526 12.4577C15.0526 12.2899 15.0128 12.1539 15.0128 11.9707C15.0128 11.7313 15.1245 11.6114 15.2841 11.6114C15.5793 11.6114 15.7228 12.0261 15.915 12.0261C16.0192 12.0261 16.1308 11.931 16.1308 11.7871C16.1308 11.1805 14.9649 11.2682 14.9649 10.4143C14.9649 10.1828 15.0443 9.89576 15.2601 9.49674Z" fill="white"/>
<path d="M16.776 14.6839C16.776 14.7955 16.8558 14.8836 16.9678 14.8836C17.0955 14.8836 17.1757 14.7715 17.1757 14.6438C17.1757 14.4767 17.0236 14.2448 16.8797 14.2448C16.8157 14.2448 16.84 14.3407 16.8236 14.4445C16.8157 14.5239 16.776 14.6198 16.776 14.6839ZM16.3608 13.6224C17.1993 13.782 17.6545 14.4126 17.6545 15.0031C17.6545 15.4103 17.399 15.7847 16.9517 15.7847C16.5444 15.7847 16.2506 15.5059 16.2506 15.0586C16.2506 14.7236 16.5122 14.3725 16.5122 14.0293C16.5122 13.8937 16.4725 13.7581 16.3608 13.6224ZM15.3001 14.9795C15.3796 15.0586 15.4039 15.1387 15.4039 15.2185C15.4039 15.3384 15.3481 15.4662 15.3481 15.6018C15.3481 15.7929 15.4916 15.9607 15.6988 15.9607C15.9228 15.9607 16.0749 15.7847 16.0749 15.5782C16.0749 15.2747 15.7625 14.9795 15.3001 14.9795ZM17.9423 14.4688C17.9981 14.5557 18.0221 14.6438 18.0221 14.7236C18.0221 14.9473 17.8703 15.1545 17.8703 15.3864C17.8703 15.6498 18.07 15.8648 18.3721 15.8648C18.6995 15.8648 18.9232 15.6018 18.9232 15.2905C18.9232 14.8675 18.5399 14.5085 17.9423 14.4688ZM15.4916 14.0451C15.8591 14.093 15.9471 14.2208 15.9471 14.3249C15.9471 14.5003 15.7872 14.5557 15.6351 14.5557C15.5234 14.5557 15.3957 14.5321 15.26 14.5321C15.0843 14.5321 14.909 14.5719 14.7651 14.7397C14.8689 14.7558 15.0206 14.8274 15.0206 14.9873C15.0206 15.4501 13.7355 15.0668 13.7355 16.2563C13.7355 16.8865 14.3901 17.5733 15.3796 17.5733C15.891 17.5733 16.2184 17.4054 16.2184 17.2136C16.2184 17.0623 15.9471 17.1657 15.9471 17.0379C15.9471 16.9821 16.0427 16.878 16.0427 16.7903C16.0427 16.7513 16.0108 16.6793 15.9471 16.6793C15.8029 16.6793 15.5317 16.9102 14.9805 16.9102C14.5497 16.9102 14.1267 16.6632 14.1267 16.3279C14.1267 16.2563 14.1585 16.2159 14.2065 16.2159C14.2544 16.2159 14.3181 16.2481 14.374 16.2481C14.4223 16.2481 14.4301 16.2159 14.4301 16.1282C14.4301 16.0405 14.4301 15.7929 14.5815 15.7929C14.7333 15.7929 15.0206 16.3519 16.1229 16.3519C16.4886 16.3519 17.1993 16.28 17.4631 16.0405C17.4548 16.9184 16.7681 18.0754 15.332 18.0754C13.8397 18.0754 13.0413 16.878 13.0413 15.7768C13.0413 14.5557 14.0386 13.4471 15.4039 13.4471C15.7546 13.4471 16.0506 13.5662 16.0506 13.718C16.0506 13.9259 15.5317 13.7981 15.4916 14.0451Z" fill="white"/>
<path d="M10.3283 4.93187C10.8551 4.93187 11.0941 5.38672 11.0941 5.8974C11.0941 6.12071 11.0308 6.44816 10.927 6.44816C10.8232 6.44816 10.839 6.26457 10.8232 6.09673C10.8071 5.88165 10.7674 5.8337 10.6955 5.8337C10.5595 5.8337 10.4721 6.15256 10.4721 6.44816C10.4721 6.63139 10.504 6.83931 10.6475 6.83931C10.7273 6.83931 10.7992 6.79923 10.8468 6.75127C10.815 7.11844 10.5434 7.43802 10.1604 7.43802C9.45831 7.43802 9.19492 6.61564 9.11511 6.13681C8.69211 6.58379 8.30132 6.91124 7.59883 6.91124C6.94465 6.91124 6.64905 6.43241 6.64905 5.97756C6.64905 5.84157 6.697 5.4905 6.86484 5.4905C7.06417 5.4905 6.88882 6.14469 7.27961 6.14469C7.37552 6.14469 7.55087 6.06488 7.64678 5.80185C7.70261 5.64188 7.73482 5.47476 7.73482 5.33089C7.73482 5.1151 7.68686 4.97983 7.52761 4.97983C7.39162 4.97983 7.22378 5.08325 7.16796 5.13908C7.35977 4.56434 7.8225 4.2691 8.33282 4.2691C8.96374 4.2691 9.2987 4.82809 9.2987 5.45042C9.2987 5.5381 9.29047 5.63401 9.27472 5.72169C9.54599 5.27471 9.92139 4.93187 10.3283 4.93187ZM9.71347 5.87342C9.71347 5.73779 9.68162 5.70594 9.64977 5.70594C9.56996 5.70594 9.48229 5.80185 9.35453 6.01728C9.37063 6.30465 9.41859 6.43241 9.49839 6.43241C9.58571 6.43241 9.71347 6.15256 9.71347 5.87342ZM8.62018 6.20051C8.70786 6.20051 8.81987 6.1046 9.02744 5.87342C9.04354 5.76964 9.04354 5.67373 9.04354 5.5542C9.04354 5.39459 8.97948 5.21888 8.88393 5.21888C8.64416 5.21888 8.52463 5.85768 8.52463 6.02552C8.52463 6.12071 8.57223 6.20051 8.62018 6.20051ZM9.92139 6.91124C10.1207 6.91124 10.344 6.14469 10.344 5.66586C10.344 5.56208 10.3283 5.45042 10.2803 5.45042C10.1125 5.45042 9.83335 6.24059 9.83335 6.67147C9.83335 6.83931 9.87344 6.91124 9.92139 6.91124ZM7.96636 6.47213C8.23762 6.47213 8.54825 5.0038 8.54825 4.75616C8.54825 4.6921 8.52463 4.64415 8.46881 4.64415C8.22152 4.64415 7.87832 6.0409 7.87832 6.35225C7.87832 6.40843 7.89443 6.47213 7.96636 6.47213Z" fill="white"/>
<path d="M8.8357 7.07839C8.49251 7.07839 8.47676 7.49387 8.47676 8.33128C8.2216 7.78088 7.7986 7.1904 7.30367 7.1904C6.96871 7.1904 6.84095 7.41407 6.84095 7.8045C6.84095 7.88467 6.84882 8.00455 6.86493 8.07577C6.90465 7.94049 7.03277 7.88467 7.19202 7.88467C7.53521 7.88467 7.95034 8.1477 8.2216 8.507C7.91026 8.45117 7.60679 8.39534 7.35163 8.39534C7.19202 8.39534 7.04816 8.41145 6.92863 8.46727C6.69709 8.5707 6.38574 8.91389 6.38574 9.4328C6.38574 9.5126 6.39397 9.60028 6.41008 9.69619C6.68921 9.0735 7.43143 8.79436 7.91026 8.79436C8.00617 8.79436 8.07774 8.80224 8.13357 8.81011C7.88628 9.03342 7.83045 9.42493 7.81435 9.68796C7.80648 9.81572 7.75852 9.82395 7.67085 9.82395C7.67085 10.087 7.87841 10.4785 7.87841 10.6778C7.87841 10.7494 7.83833 10.8135 7.7986 10.8296C7.7986 11.1806 8.14967 11.4361 8.14967 11.6595C8.14967 11.7153 8.13357 11.7632 8.10959 11.7872C8.13357 11.9311 8.51971 12.1726 8.56981 12.2936C8.631 12.4407 8.70007 12.4657 8.74015 12.4657C8.87579 12.4657 9.09086 12.3058 9.09086 12.1623C9.09086 12.1143 9.05114 12.0585 9.01965 12.0345C8.86791 11.9228 8.78775 11.6834 8.72405 11.5238C8.66786 11.5238 8.59558 11.5002 8.57052 11.4064C8.52686 11.2411 8.52472 10.9333 8.46066 10.7494C8.35688 10.7258 8.30892 10.6857 8.30892 10.4706C8.30892 10.3665 8.37298 9.95958 8.37298 9.81572C8.32503 9.81572 8.26133 9.78387 8.26133 9.68796C8.26133 9.4328 8.51684 9.23311 8.58842 8.90602C9.04363 9.24098 9.15492 9.58418 9.15492 9.88765C9.15492 10.0469 9.13094 10.199 9.09909 10.3429C9.43442 10.175 9.93722 9.92773 9.93722 9.42493C9.93722 9.12933 9.80159 8.80224 8.89976 8.67448C9.1789 8.5707 9.53033 8.51523 9.82557 8.51523C10.3362 8.51523 10.6315 8.67448 10.6952 9.03342C10.799 8.87417 10.8791 8.69022 10.8791 8.5231C10.8791 8.13159 10.5513 7.87643 10.1366 7.87643C9.64985 7.87643 9.21898 8.13159 8.7559 8.4433C8.96382 8.01242 9.10697 7.75691 9.36249 7.75691C9.40257 7.75691 9.44265 7.76514 9.48237 7.77301C9.38646 7.42194 9.02752 7.07839 8.8357 7.07839Z" fill="white"/>
<path d="M22.2821 12.8324C22.6814 12.8324 23.0007 13.3513 23.0007 13.9579C23.0007 14.6038 22.6972 15.3063 22.1561 15.7848C22.1479 14.708 20.8295 15.0512 20.8295 14.2689C20.8295 13.9339 21.0692 13.7102 21.357 13.7102C21.6128 13.7102 21.8122 13.7822 21.956 13.926C21.8122 13.7904 21.7402 13.5986 21.7402 13.4153C21.7402 13.1115 21.9321 12.8324 22.2821 12.8324Z" fill="white"/>
<path d="M16.3608 4.66833C16.2967 4.56455 16.0587 4.50908 15.9471 4.50908C15.5953 4.50908 15.3559 4.75636 15.3079 4.98003C15.2761 4.89987 15.2517 4.80432 15.2517 4.70841C15.2517 4.35734 15.4915 3.92647 16.0748 3.92647C16.5844 3.92647 16.7838 4.19773 16.8561 4.19773C16.9355 4.19773 17.0157 4.11757 17.0797 4.11757C17.1674 4.11757 17.1674 4.25356 17.1674 4.34947C17.1674 4.66833 17.0239 5.21909 16.6642 5.41878C16.6002 5.28279 16.4724 5.13141 16.2663 5.03586C16.2105 5.01188 16.1865 4.96393 16.1865 4.91597C16.1865 4.82829 16.2663 4.71628 16.3608 4.66833ZM15.1562 5.25094C15.3637 5.45063 15.547 5.5383 15.7706 5.5383C15.859 5.5383 15.9628 5.51468 16.019 5.51468C16.0906 5.51468 16.1385 5.54618 16.1385 5.602C16.1385 5.69004 16.0587 5.83354 15.9628 5.91371C16.0587 5.95343 16.1625 5.96953 16.2745 5.96953C16.7279 5.96953 17.2472 5.68181 17.2472 4.96393C17.3431 5.09133 17.3993 5.35508 17.3993 5.4746C17.3993 6.34458 16.7601 6.67954 16.1707 6.67954C15.7871 6.67954 15.5953 6.55178 15.547 6.55178C15.396 6.55178 15.4038 6.85526 15.3 6.84738C15.1161 6.81553 14.949 6.40828 14.949 5.97741C14.949 5.72189 15.0127 5.45063 15.1562 5.25094Z" fill="white"/>
<path d="M8.32492 0.175412C8.32492 0.127458 8.08551 0.0795035 7.75841 0.0795035C7.23986 0.0795035 7.31144 0.510734 6.91277 0.510734C6.49765 0.510734 6.60107 0.0633993 6.07429 0.0633993C5.75507 0.0633993 5.46019 0.119584 5.46019 0.191158C5.46019 0.287066 5.83523 0.247343 5.83523 0.510734C5.83523 0.789871 5.02932 0.870033 5.02932 1.03751C5.02932 1.09298 5.09266 1.11696 5.17246 1.11696C5.34818 1.11696 5.62731 1.03751 5.827 1.03751C5.93902 1.03751 6.0428 1.06113 6.0428 1.16492C6.0428 1.36461 5.61157 1.7239 5.61157 1.88351C5.61157 1.93147 5.65129 1.94757 5.69137 1.94757C5.85098 1.94757 6.12224 1.54032 6.37776 1.54032C6.80076 1.54032 6.52162 2.44215 6.75281 2.44215C6.99258 2.44215 6.8888 1.55606 7.23163 1.55606C7.51149 1.55606 7.71869 2.17052 7.91015 2.17052C7.95811 2.17052 7.99819 2.1308 7.99819 2.07462C7.99819 1.90749 7.75841 1.56394 7.75841 1.34063C7.75841 1.205 7.85432 1.14094 7.98208 1.14094C8.16531 1.14094 8.41295 1.25259 8.54823 1.25259C8.59618 1.25259 8.64414 1.23685 8.64414 1.18102C8.64414 0.989561 7.93413 0.781997 7.93413 0.534711C7.93413 0.287066 8.32492 0.287066 8.32492 0.175412ZM10.2005 0.989561C10.2005 1.13307 10.7033 1.44441 10.9348 1.44441C11.0701 1.44441 11.1102 1.26082 11.1102 1.06901C11.1102 0.829952 11.0068 0.822079 10.7989 0.822079C10.5358 0.822079 10.2005 0.89401 10.2005 0.989561ZM11.0308 2.56955C11.0308 2.09072 9.73563 1.2211 9.72168 0.846056C9.72025 0.8117 9.73885 0.777703 9.76784 0.746926C9.98972 0.513239 10.9109 0.342536 10.9109 0.143204C10.9109 0.0397797 10.7191 0.0397801 10.6231 0.0397801C9.88129 0.0397801 8.79587 0.311043 8.79587 0.574434C8.79587 0.846056 9.76927 1.50847 9.76927 1.83556C9.76927 1.92359 9.71345 1.95545 9.62541 1.95545C9.3545 1.95545 8.76367 1.628 8.48453 1.628C8.35677 1.628 8.30882 1.71567 8.30882 1.84343C8.30882 2.22671 8.76367 2.95282 8.76367 3.1679C8.76367 3.19188 8.75579 3.22373 8.72394 3.22373C8.58008 3.22373 7.90228 2.42604 7.66251 2.42604C7.57483 2.42604 7.56696 2.54557 7.56696 2.72128V2.99255C7.56696 3.17613 7.55872 3.28779 7.47141 3.28779C7.26384 3.28779 7.16758 2.70518 6.9686 2.70518C6.76104 2.70518 6.72096 3.74264 6.52162 3.74264C6.29008 3.74264 6.48977 2.6014 6.26611 2.6014C6.01882 2.6014 5.73933 3.35972 5.56361 3.35972C5.49991 3.35972 5.48417 3.29566 5.48417 3.23983C5.48417 3.00865 5.61944 2.6336 5.61944 2.4103C5.61944 2.29828 5.58759 2.23458 5.49204 2.23458C5.24439 2.23458 4.70151 2.6336 4.4943 2.6336C4.46245 2.6336 4.42273 2.6175 4.42273 2.58565C4.42273 2.39419 5.29235 1.78761 5.29235 1.51634C5.29235 1.25259 4.09492 1.42866 4.09492 1.12519C4.09492 0.870033 4.94951 0.606284 4.94951 0.343252C4.94951 0.111353 3.93567 0.00792933 3.54488 0.00792933C3.07357 0.00792933 2.81877 0.0633993 2.81877 0.199389C2.81877 0.406952 3.88808 0.471011 3.88808 0.654239C3.88808 0.829952 2.77869 1.30055 2.77869 1.57181C2.77869 1.81158 4.34257 1.58792 4.34257 1.83556C4.34257 2.10682 2.97838 3.27956 2.97838 3.6707C2.97838 3.75874 3.04243 3.79846 3.12975 3.79846C3.54488 3.79846 4.6217 3.00865 4.9173 3.00865C5.02109 3.00865 5.02932 3.13605 5.02932 3.24771C5.02932 3.45563 4.95738 3.77449 4.95738 4.00603C4.95738 4.18961 5.00534 4.31737 5.16459 4.31737C5.46019 4.31737 5.73145 3.81457 5.93078 3.81457C6.18594 3.81457 6.03492 5.29077 6.41784 5.29077C6.74493 5.29077 6.88057 3.69468 7.08777 3.69468C7.29569 3.69468 7.46353 4.15776 7.65463 4.15776C7.89405 4.15776 7.78239 3.35184 8.03791 3.35184C8.31705 3.35184 9.11473 4.3095 9.47439 4.3095C9.58569 4.3095 9.62541 4.22146 9.62541 4.10945C9.62541 3.68681 9.03529 2.72951 9.03529 2.42604C9.03529 2.34624 9.05891 2.32226 9.14658 2.32226C9.45829 2.32226 10.368 2.75313 10.7989 2.75313C10.9427 2.75313 11.0308 2.67333 11.0308 2.56955ZM3.74386 2.10682C3.74386 2.26643 3.13763 2.80073 2.92255 2.80073C2.84274 2.80073 2.81877 2.70518 2.81877 2.6175C2.81877 2.45825 2.89034 2.23458 2.97838 2.16265C3.0818 2.06674 3.32121 2.0195 3.5048 2.0195C3.6161 2.0195 3.74386 2.04277 3.74386 2.10682ZM9.60966 2.92885C9.60966 3.20798 10.6074 4.57253 10.7989 4.57253C10.9588 4.57253 11.078 4.29339 11.078 4.05362C11.078 3.99028 11.0622 3.92658 11.0308 3.87827C10.8869 3.67894 9.87341 2.88089 9.64975 2.88089C9.62541 2.88089 9.60966 2.90487 9.60966 2.92885Z" fill="white"/>
<path d="M22.4258 0.510766C22.4258 0.622063 22.5135 0.70974 22.6255 0.70974C22.7372 0.70974 22.8252 0.622063 22.8252 0.510766C22.8252 0.398754 22.7372 0.311076 22.6255 0.311076C22.5135 0.311076 22.4258 0.398754 22.4258 0.510766ZM21.1253 2.27434C21.1253 1.70748 19.7697 1.56397 19.7697 1.43621C19.7697 1.33279 20.527 1.15672 20.9178 1.14884C20.3194 0.383007 19.4663 0.462812 19.4663 0.32718C19.4663 0.247017 20.1051 0.0874088 20.6948 0.0874088C21.1894 0.0874088 21.6525 0.199063 21.6525 0.574109C21.6525 0.78203 21.485 0.997466 21.485 1.31668C21.485 1.4924 21.5723 1.64378 21.8046 1.64378C22.0522 1.64378 22.108 1.38038 22.108 1.10089C22.108 0.869707 22.068 0.693994 22.068 0.58234C22.068 0.247018 22.2981 0.0237081 22.6255 0.0237081C22.8971 0.0237081 22.9608 0.143236 23.3602 0.143236C23.1444 0.270995 23.065 0.502893 23.065 0.61419C23.065 0.949512 23.2808 1.18105 23.2808 1.86744C23.2808 3.12785 22.0998 3.57483 20.6547 3.57483C20.2571 3.57483 19.8338 3.54298 19.4183 3.47928C19.3546 3.47141 19.3385 3.4553 19.3385 3.41558C19.3385 3.31144 19.9057 3.25561 19.9057 2.74529C19.9057 2.5456 19.8417 2.35414 19.8417 2.28221C19.8417 2.24249 19.8735 2.21851 19.9057 2.21851C20.0256 2.21851 20.2654 2.68123 20.7109 2.68123C20.8297 2.68123 21.1253 2.64115 21.1253 2.27434ZM22.4734 1.46842C22.4734 2.17843 21.9563 2.72131 21.0212 2.87269C21.1253 2.88057 21.2212 2.88057 21.3172 2.88057C22.4097 2.88057 22.8091 2.38599 22.8091 1.97122C22.8091 1.73968 22.6813 1.53212 22.4734 1.46842Z" fill="white"/>
<path d="M21.9242 11.7551C22.0519 11.356 22.2119 11.0765 22.4735 10.6457C22.2119 10.5104 21.5169 10.2227 21.5169 9.75171C21.5169 9.20131 22.2037 8.77044 22.3457 8.77044C22.4095 8.77044 22.4256 8.82626 22.4256 8.93005C22.4256 9.21706 22.2899 9.68014 22.2899 9.92742C22.2899 10.1507 22.4338 10.3665 22.5615 10.3665C22.6972 10.3665 23.0726 9.8877 23.0726 9.41675C23.0726 8.57039 22.3296 8.31523 22.0999 8.31523C21.8841 8.31523 21.493 8.6663 20.5747 8.6663C18.8594 8.6663 18.4679 6.96714 18.4679 6.22457C18.4679 6.19272 18.4758 6.18449 18.4836 6.18449C18.5237 6.18449 18.6916 6.39241 19.2344 6.39241C19.5139 6.39241 19.7695 6.32047 20.1771 6.32047C21.1333 6.32047 21.5567 6.98325 22.1478 7.82853C22.5054 8.05184 23.3603 8.41114 23.3603 9.42462C23.3603 10.3186 22.4094 10.8135 22.1797 11.7708C22.5454 11.7314 22.7612 11.0765 23.1363 11.0765C23.3281 11.0765 23.4161 11.2283 23.4161 11.468C23.4161 11.8188 23.2164 12.3459 22.8328 12.673C22.841 12.6408 22.841 12.6011 22.841 12.5531C22.841 12.3298 22.7534 12.0109 22.4975 12.0109C22.0999 12.0109 21.9718 12.4414 21.7485 12.8004C21.5169 11.987 21.2052 11.2522 20.647 10.8053C20.0815 10.3504 19.1067 10.5977 19.1067 9.76781C19.1067 9.54415 19.2506 9.22529 19.2506 8.96977C19.2506 8.88209 19.2344 8.80229 19.1865 8.73823C19.9534 9.02595 19.6818 9.53627 20.1531 10.0631C20.4469 10.3984 21.2611 10.7176 21.7327 12.0982C21.7402 12.0582 21.7485 11.9547 21.7485 11.8828C21.7485 10.7015 20.1849 9.54415 20.0493 9.06532C20.9576 9.1691 21.1172 9.39277 21.5488 10.5898C21.6365 10.8375 21.9242 11.4519 21.9242 11.7551ZM21.7166 7.88436C21.7166 7.71687 21.2929 7.70113 21.2532 7.23017C21.2449 7.15824 21.2213 7.03084 21.1333 7.03084C20.9894 7.03084 21.1011 7.46959 20.9415 7.46959C20.5747 7.46959 20.4551 6.75135 20.3191 6.75135C20.2869 6.75135 20.249 6.77532 20.249 6.87123C20.249 6.95891 20.2651 7.0151 20.2651 7.11816C20.2651 7.2223 20.2411 7.29388 20.1452 7.29388C19.9294 7.29388 19.738 6.79143 19.554 6.79143C19.5139 6.79143 19.4742 6.81541 19.4742 6.85513C19.4742 6.95104 19.6338 7.12639 19.6338 7.21443C19.6338 7.40589 19.1149 7.30211 19.1149 7.46172C19.1149 7.53365 19.1865 7.55727 19.2824 7.55727C19.4502 7.55727 19.714 7.48569 19.8496 7.48569C19.9294 7.48569 20.0493 7.5018 20.0493 7.60522C20.0493 7.71687 19.7619 7.86038 19.7619 7.96416C19.7619 8.01212 19.8099 8.03573 19.8496 8.03573C20.0654 8.03573 20.4469 7.66105 20.7185 7.66105C20.7661 7.66105 20.8856 7.68502 20.8856 7.75696C20.8856 7.86038 20.6147 8.04361 20.6147 8.19534C20.6147 8.23542 20.6387 8.28338 20.6867 8.28338C20.8295 8.28338 21.0213 7.90833 21.2929 7.90833C21.397 7.90833 21.5488 7.94841 21.6286 7.94841C21.6926 7.94841 21.7166 7.90833 21.7166 7.88436Z" fill="white"/>
<path d="M15.7708 3.10388C15.899 3.10388 15.9229 3.41559 15.9473 3.59881C15.963 3.69472 15.9791 3.7026 16.0192 3.7026C16.1151 3.7026 16.2665 3.33542 16.3688 3.33542C16.5202 3.33542 16.9278 3.75842 17.6067 3.75842C18.5719 3.75842 19.4823 3.07991 19.4823 1.8832C19.4823 0.72621 18.6674 0.047693 17.5426 0.047693C17.008 0.047693 16.6161 0.311084 16.4086 0.311084C16.2826 0.318957 16.0908 9.60827e-05 15.9949 9.60827e-05C15.9551 9.60827e-05 15.9151 0.0795434 15.9151 0.215175C15.9151 0.303211 15.9151 0.582347 15.8192 0.582347C15.627 0.582347 14.8851 0.0319464 14.8851 0.231279C14.8851 0.414865 15.3797 0.973496 15.3797 1.117C15.3797 1.26086 14.893 1.3965 14.893 1.4924C14.893 1.66776 15.4119 1.69961 15.4119 1.92328C15.4119 2.14659 14.869 2.3223 14.869 2.49014C14.869 2.62541 15.4119 2.52986 15.4119 2.69735C15.4119 2.86483 15.0129 3.42346 15.0129 3.58271C15.0129 3.62279 15.0208 3.62279 15.0526 3.62279C15.204 3.62279 15.6588 3.10388 15.7708 3.10388ZM16.0031 1.79552C16.0031 1.70784 15.691 1.54036 15.691 1.44445C15.691 1.4287 15.7068 1.42047 15.7311 1.42047C15.8192 1.42047 15.9709 1.45268 16.0908 1.45268C16.1949 1.45268 16.2107 1.0057 16.289 1.0057C16.3445 1.0057 16.4404 1.4287 16.5288 1.4287C16.6322 1.4287 16.8237 1.30882 16.9039 1.30882C16.92 1.30882 16.9357 1.31669 16.9357 1.3328C16.9357 1.38862 16.736 1.6037 16.736 1.66776C16.736 1.73969 17.1833 1.82737 17.1833 1.89143C17.1833 1.97123 16.7281 1.96336 16.7281 2.03529C16.7281 2.09076 16.896 2.31443 16.896 2.386C16.896 2.4021 16.8878 2.41034 16.872 2.41034C16.8079 2.41034 16.5603 2.29832 16.4884 2.29832C16.4007 2.29832 16.2586 2.62541 16.1867 2.62541C16.1627 2.62541 16.147 2.59356 16.147 2.55348L16.1305 2.23426C16.1305 2.20241 16.1151 2.17056 16.075 2.17056C15.9791 2.17056 15.7952 2.16233 15.739 2.16233C15.6989 2.16233 15.6832 2.15446 15.6832 2.13871C15.6832 2.07466 16.0031 1.85135 16.0031 1.79552ZM17.5588 3.3118C16.9998 3.3118 16.6322 3.03267 16.6322 2.8888C16.6322 2.81687 16.6802 2.76928 16.7442 2.76928C16.92 2.76928 17.3032 3.04018 17.431 3.04018C17.4628 3.04018 17.4868 3.02444 17.4868 2.97648C17.4868 2.83262 17.3512 2.59356 17.3512 2.47404C17.3512 2.44219 17.3752 2.41821 17.4231 2.41821C17.6386 2.41821 17.9585 2.50624 18.1263 2.50624C18.1818 2.50624 18.1975 2.47404 18.1975 2.44219C18.1975 2.26647 17.6786 1.92328 17.6786 1.8195C17.6786 1.72359 18.3239 1.57972 18.3239 1.4287C18.3239 1.26874 17.4467 1.38039 17.4467 1.22901C17.4467 1.117 17.6146 0.925543 17.6146 0.837865C17.6146 0.797784 17.5827 0.782037 17.5269 0.782037C17.455 0.782037 17.0717 0.933773 16.9121 0.933773C16.8319 0.933773 16.736 0.917669 16.736 0.806015C16.736 0.622071 17.0477 0.422738 17.5348 0.422738C18.3239 0.422738 18.7955 0.965623 18.7955 1.87532C18.7955 3.02444 17.99 3.3118 17.5588 3.3118Z" fill="white"/>
<path d="M12.1557 17.1181C12.1557 17.19 12.1318 17.2702 12.0677 17.3496C11.9804 17.19 11.7327 17.1099 11.6207 17.1102C10.7991 17.1102 11.11 18.2994 10.2322 18.2994C9.86538 18.2994 9.83317 18.2515 9.69754 18.2515C9.64171 18.2515 9.60986 18.2754 9.60986 18.3234C9.60986 18.5313 9.9051 19.0416 10.7271 19.0416C11.5491 19.0416 12.3393 18.5392 12.3393 17.9158C12.3393 17.8124 12.3153 17.7014 12.2674 17.5894C12.2992 17.5414 12.3794 17.5096 12.4513 17.5096C12.5787 17.5096 12.6507 17.6535 12.7702 17.6535C12.8983 17.6535 12.9939 17.5575 12.9939 17.4298C12.9939 17.326 12.938 17.2541 12.8421 17.2058C12.9062 17.1582 12.9538 17.078 12.9538 16.9903C12.9538 16.8547 12.8582 16.7277 12.6983 16.7277C12.6263 16.7277 12.5787 16.7516 12.5229 16.8067C12.5072 16.6636 12.4274 16.528 12.2756 16.528C12.1557 16.528 12.0677 16.6156 12.0677 16.7516C12.0677 16.8783 12.1557 16.9825 12.1557 17.1181Z" fill="white"/>
<path d="M10.0091 17.4216C9.76968 17.4216 9.41038 17.1661 9.41038 17.0223C9.41038 16.9024 9.52239 16.8383 9.60971 16.8383C9.8094 16.8383 10.1683 17.086 10.1683 17.2935C10.1683 17.3497 10.1283 17.4216 10.0091 17.4216ZM7.78244 15.6341C8.42087 15.793 8.74009 16.1362 8.80379 16.5438C8.86785 16.9342 8.94765 17.2538 9.09903 17.4134C9.29872 17.6374 9.68951 17.8361 10.0331 17.8361C10.3204 17.8361 10.5513 17.7412 10.5513 17.4775C10.5513 17.1901 10.1605 16.5438 9.58573 16.5438C9.53026 16.5438 9.45833 16.552 9.37853 16.552C9.3066 16.552 9.20281 16.5359 9.13876 16.4801C9.01136 16.3681 8.97163 15.7694 8.73186 15.4104C8.46883 15.0114 8.18146 14.8994 7.79067 14.8994C7.51153 14.8994 7.19983 15.0511 7.19983 15.2748C7.19983 15.4104 7.27176 15.506 7.78244 15.6341Z" fill="white"/>
<path d="M11.7887 14.6598C11.7887 14.3008 11.0461 14.293 11.0461 13.7501C11.0461 13.6141 11.1342 13.3829 11.3099 13.1353C11.3818 13.5504 11.5493 13.7658 11.9086 13.9018C12.6186 14.1649 12.7145 14.5639 12.7145 14.9872C12.7145 15.7058 12.2117 16.5994 10.9191 16.5994C9.88126 16.5994 9.13904 15.6736 9.13904 14.8917C9.13904 14.6759 9.19487 14.4365 9.3305 14.4365C9.45038 14.4365 9.49046 14.532 9.58566 14.6279C9.94531 14.9872 10.3361 15.0828 10.903 15.0828C11.4136 15.0828 11.7887 14.8756 11.7887 14.6598ZM11.8205 15.2345C11.5468 15.3598 11.4376 15.3383 11.4376 15.6182C11.4376 15.7216 11.4136 15.8569 11.4136 15.9288C11.4136 16.0243 11.4297 16.0805 11.541 16.0805C11.8288 16.0805 12.2836 15.5938 12.2836 15.1787C12.2836 15.0667 12.2196 15.0194 12.1476 15.0194C12.0836 15.0194 12.0124 15.1468 11.8205 15.2345ZM9.27467 11.2046C9.27467 10.6935 10.4878 10.4223 10.4878 9.79171C10.4878 9.68793 10.4481 9.5047 10.3762 9.36871C10.7992 9.60025 11.1102 9.99176 11.1102 10.3106C11.1102 10.8614 10.5358 11.1165 10.5358 11.4601C10.5358 11.8591 11.1503 11.9228 11.1503 12.4177C11.1503 12.8243 10.5673 13.2952 10.5673 13.822C10.5673 14.2289 10.855 14.5639 11.2938 14.6197C11.1503 14.6519 11.0225 14.6759 10.8869 14.6759C10.0806 14.6759 9.25069 14.0138 9.25069 13.2233C9.25069 12.8322 9.41853 12.4897 9.67369 12.242C9.89736 12.4335 10.1207 12.5612 10.2642 12.5612C10.3919 12.5612 10.4481 12.4975 10.4481 12.4016C10.4481 12.106 9.27467 11.8351 9.27467 11.2046Z" fill="white"/>
<path d="M4.64565 15.1466C4.67929 15.4193 4.93338 15.6258 5.22039 15.5939C5.32381 15.5825 5.42008 15.5539 5.48413 15.5141C5.54784 15.7693 5.7622 15.9336 6.05171 15.8956C6.34552 15.8573 6.54557 15.6258 6.51372 15.3302C6.50513 15.2508 6.48974 15.2024 6.46577 15.1466C6.46577 15.1466 6.50477 15.1427 6.53412 15.1369C6.8222 15.0826 7.01652 14.8514 6.99255 14.5719C6.9607 14.2849 6.70303 14.0716 6.43427 14.1045C6.33049 14.1174 6.23423 14.1567 6.17017 14.2129C6.09824 13.9739 5.87314 13.7656 5.56573 13.8168C5.28838 13.8626 5.1048 14.0981 5.13271 14.3965C5.137 14.4448 5.14845 14.5003 5.17243 14.5558C5.17243 14.5558 5.12555 14.5629 5.09334 14.5676C4.86037 14.6023 4.60772 14.8367 4.64565 15.1466ZM6.13689 14.8328C6.15657 14.9995 6.0374 15.1498 5.87063 15.1695C5.70422 15.1888 5.5532 15.0693 5.53424 14.9029C5.51455 14.7361 5.63372 14.5851 5.80049 14.5658C5.96726 14.5461 6.11792 14.6656 6.13689 14.8328Z" fill="white"/>
</svg>
