<svg width="61" height="29" viewBox="0 0 61 29" fill="none" xmlns="http://www.w3.org/2000/svg">
<path fill-rule="evenodd" clip-rule="evenodd" d="M7.80398 26.0131C7.80398 26.8185 7.55846 27.4706 7.14091 27.9648C6.75933 28.3761 6.17289 28.7201 5.37377 29.0001L5.01721 28.4746C5.40504 28.3761 5.68185 28.2025 5.81634 28.0274C5.92893 27.8475 5.99618 27.5332 5.99618 27.1563V26.3525C5.19549 26.8169 4.57308 27.05 4.04763 27.05C3.46118 27.05 2.90289 26.8185 2.34929 26.3525C1.79256 25.9474 1.41411 25.458 1.20143 24.87C1.02784 24.4149 0.962158 23.9191 0.962158 23.3718C0.962158 22.2583 1.34686 21.3278 2.13661 20.6226C2.65893 20.1769 3.52843 19.6968 4.74197 19.1666C5.6146 19.1666 6.54978 19.5888 7.48965 20.413L6.51381 21.9159C5.88827 20.9775 5.09384 20.388 4.1915 20.2097C3.63321 20.352 3.2485 20.5991 3.0061 20.9416C2.76371 21.2825 2.65893 21.9159 2.65893 22.7431C2.65893 23.6846 2.90289 24.4837 3.42209 25.1765C3.91314 25.8349 4.46517 26.1492 5.05787 26.1492C5.19393 26.1492 5.51139 25.8349 6.02745 25.2171L6.06812 23.9723C6.0947 23.7581 6.02745 23.6564 5.88827 23.6079H5.57707V23.059L7.8681 22.8182L7.80242 26.0116L7.80398 26.0131ZM12.0764 26.7059C11.9732 26.7732 11.6276 26.7732 11.1068 26.7419L10.4094 26.7059H9.99024L9.25992 26.7732L9.22865 19.6248C9.22865 19.5247 9.15671 19.0978 9.01753 18.4441C8.98156 18.2393 8.94559 18.1282 8.84551 18.1282H8.77357L8.53117 18.2017V17.6106L10.5501 17.0492C10.8629 18.2768 11.0302 19.2745 11.0302 20.008V21.0432L10.9614 25.777L11.4165 25.8364L11.5869 25.8755H11.7245C11.7965 25.8755 11.8653 25.8364 11.9748 25.802L12.6941 25.3563L13.046 25.802C12.6941 26.3243 12.3548 26.5996 12.078 26.7059H12.0764ZM18.7415 26.1163C19.0559 25.802 19.2998 25.3188 19.4734 24.6229L18.3287 24.2116C18.0487 25.4142 17.6687 26.0554 17.1808 26.0554C16.66 26.0554 16.1362 25.777 15.5779 25.2171C15.0931 24.723 14.821 24.1678 14.7115 23.5438L16.2816 23.5078C16.7977 23.5078 17.248 23.439 17.6328 23.3014C17.9784 23.1998 18.3662 22.9902 18.8432 22.679L18.5335 22.1536C18.1222 22.4006 17.7031 22.5383 17.3169 22.5383L14.6818 22.4663C14.6818 21.9831 14.821 21.4983 15.0227 21.0417C15.2651 20.4537 15.6216 20.1769 15.9985 20.1769C16.1737 20.1769 16.488 20.2738 16.8712 20.4896C17.2856 20.7305 17.7031 21.0823 18.1222 21.528L19.3389 20.4896C18.471 19.6233 17.6328 19.1666 16.7664 19.1666C15.5466 19.5544 14.6458 20.0064 14.0641 20.5225C13.3228 21.184 12.9459 22.1223 12.9459 23.267C12.9459 24.2726 13.2211 25.1124 13.7794 25.8004C14.3674 26.462 15.1322 26.8482 16.108 26.9874C16.5553 26.9155 17.015 26.8169 17.4529 26.7043C18.0519 26.5667 18.5038 26.3525 18.7446 26.1148L18.7415 26.1163ZM25.2659 26.8795C25.133 26.8795 25.0251 26.7747 24.9562 26.5996C24.8562 26.4307 24.8186 26.2899 24.8186 26.1507L24.8562 25.9099V25.7316L25.1986 22.1927V22.0253C25.1986 21.6735 24.9938 21.2856 24.6091 20.9447C24.1947 20.6022 23.774 20.4161 23.322 20.4161C23.053 20.6038 22.8044 20.8743 22.5995 21.331C22.3884 21.7798 22.2821 22.1567 22.2821 22.5414L22.2195 26.6684L20.5102 26.917L20.5822 21.919L20.5509 21.5311L20.5102 21.1496L20.2991 20.4568C20.2991 20.4161 20.2991 20.3927 20.2663 20.3567H19.9957L19.8565 19.7593L21.7957 19.2417L22.146 20.1456L22.218 20.5256C22.9795 19.7593 23.7036 19.3074 24.3682 19.1697C25.0673 19.2745 25.685 19.6264 26.2058 20.18C26.7312 20.7696 27.0064 21.4326 26.972 22.0894C26.9376 22.1567 26.9376 22.2615 26.9376 22.4038L26.5529 25.6988C26.5529 25.838 26.5529 25.9506 26.5905 26.0147H26.6233L26.9376 25.9756L27.0064 26.6011L25.2659 26.8811V26.8795ZM36.5553 26.8795L36.4927 26.8185C36.4536 26.8185 36.4536 26.7747 36.4536 26.7747C36.2816 26.6434 36.2144 26.3243 36.2144 25.9099L36.2425 25.7316L36.5913 22.0519C36.5913 21.6735 36.4536 21.331 36.1753 20.9791C35.8969 20.6241 35.5795 20.4552 35.2448 20.4552C35.1306 20.4552 34.9946 20.4912 34.8554 20.524C34.7162 20.732 34.5395 21.0135 34.3299 21.4326L34.2658 21.5671L34.1939 26.6684L32.4924 26.917L32.5925 22.0519C32.5925 21.6375 32.4924 21.2841 32.2485 20.9431C32.0014 20.6241 31.6902 20.4552 31.307 20.4552H31.1647L30.891 20.5631L30.4766 21.2231C30.3734 21.3951 30.3374 21.4999 30.3374 21.5296L30.3093 26.6684L28.5672 26.917L28.6766 21.919L28.6344 21.5311L28.5672 21.1496L28.3607 20.4568C28.392 20.4161 28.3607 20.3927 28.3607 20.3567H28.0839L27.9401 19.7593L29.8526 19.2417C30.0262 19.6999 30.167 20.0408 30.1983 20.2785C30.6893 19.7593 31.2726 19.3824 31.8997 19.1713H32.0014C32.7364 19.1713 33.3948 19.6279 33.9499 20.4943C34.4722 19.8375 35.0947 19.3824 35.8265 19.1713C36.4521 19.1713 37.0432 19.4888 37.5593 20.1143C38.0879 20.7054 38.3615 21.2872 38.3615 21.8861L38.3318 22.0926L38.2943 22.4069L37.9502 25.533C37.9096 25.7363 37.9502 25.9146 37.9784 26.0616H38.0112L38.3318 25.9537L38.3975 26.6043L36.5537 26.8842L36.5553 26.8795ZM44.1978 27.05L43.5363 26.1163L43.2689 25.6675C42.2821 26.354 41.3156 26.7732 40.3445 26.8795C40.0317 26.7747 39.7502 26.5996 39.511 26.354C39.2701 26.0866 39.1263 25.7786 39.1263 25.4595C39.1263 24.4853 40.1334 23.5094 42.2195 22.5414C41.9756 21.8455 41.8755 21.4608 41.8333 21.3638C41.6268 20.9447 41.3844 20.6257 41.0685 20.4161L40.4477 20.8743L40.0599 20.3911L41.1436 19.5576L41.5205 19.2745L41.8333 19.1697C42.2805 19.1697 42.7043 19.4872 43.1547 20.0408C43.3955 20.3927 43.677 21.2262 44.0242 22.543C44.3339 23.8644 44.8953 25.0467 45.6209 26.0585L44.1962 27.0531L44.1978 27.05ZM42.4291 23.303L42.5964 23.4078H42.3587C41.8786 23.4078 41.4892 23.5438 41.1467 23.7925C40.798 24.0614 40.6197 24.3508 40.6197 24.6932C40.6197 25.0091 40.8965 25.3579 41.4235 25.802H41.5971C42.2227 25.802 42.6402 25.4595 42.8435 24.6932L42.4291 23.303ZM48.1919 24.798L48.1575 26.6684L46.456 26.917L46.5592 21.9487L46.5248 21.5296L46.456 21.148L46.2527 20.4552C46.2855 20.4146 46.2527 20.3911 46.2527 20.3551H45.9728L45.8336 19.7577L47.7446 19.2401L48.0245 19.8672L48.0902 20.144C48.747 19.6561 49.3038 19.3449 49.7166 19.1682C50.558 19.273 51.2148 19.556 51.7309 20.008C52.297 20.5225 52.5378 21.1855 52.5378 22.0238C52.5378 23.0981 51.8794 23.8972 50.4845 24.4149C51.4619 25.5956 52.1547 26.1852 52.5691 26.1852H52.6785L52.9913 26.1476V26.7043C52.6785 26.8482 52.3282 26.9483 51.8794 26.9874H51.4619C50.8301 26.9874 50.1404 26.6418 49.4101 25.9084L48.8565 25.3563L48.7142 25.2484C48.4358 24.9716 48.2685 24.834 48.1934 24.798H48.1919ZM48.1919 24.2366H48.403C49.0629 24.2366 49.5821 24.1052 49.995 23.8613C50.558 23.5798 50.8301 23.0966 50.8301 22.5101C50.8301 21.9237 50.619 21.4311 50.2405 21.0135C49.8667 20.5631 49.4429 20.3536 49.0254 20.3536C48.9566 20.3536 48.9284 20.3536 48.8831 20.3895L48.7126 20.4537C48.5469 20.7305 48.403 21.1152 48.2951 21.6359C48.2669 21.7767 48.2247 22.0222 48.2247 22.2974L48.1919 24.235V24.2366ZM56.8055 23.0981C57.1214 23.2279 57.4968 23.6111 57.9565 24.2116L58.4022 24.798L58.5133 24.9419C59.1341 25.7786 59.6158 26.1867 59.9332 26.1867L60.038 26.6684L59.2373 26.9499L58.604 27.0218C58.2974 27.0218 57.955 26.8185 57.4952 26.354C57.3967 26.2555 57.1199 25.9099 56.6319 25.3188L56.5631 25.178C56.18 24.7245 55.9063 24.4602 55.7624 24.4164L55.6217 24.5916V26.6434L53.8843 26.917V21.1167C53.8843 20.3207 53.8546 19.5904 53.7529 18.9336C53.6794 18.4426 53.6043 18.2002 53.5434 18.2002H53.473L53.2275 18.2752L53.1242 17.6794L55.1009 17.0898C55.4575 17.9562 55.6248 19.4121 55.6248 21.4983V23.267C56.7711 21.8814 57.4686 20.5616 57.6828 19.3042H59.4797C59.2045 19.9016 58.8933 20.4896 58.471 21.0135C58.0238 21.6078 57.4686 22.2974 56.8071 23.0966L56.8055 23.0981Z" fill="white"/>
<path d="M32.7817 7.14208L36.6835 3.34038C35.3917 1.33396 33.1054 0 30.5 0C26.4653 0 23.1953 3.19807 23.1953 7.14208C23.1953 11.0861 26.4653 14.281 30.5 14.281C34.5348 14.281 37.8063 11.0845 37.8063 7.14208H32.7801H32.7817ZM32.3204 9.78498C32.3204 11.011 31.3289 12.001 30.1059 12.001C28.883 12.001 27.8915 11.011 27.8915 9.78498V7.77075H32.3219V9.78498H32.3204ZM32.3204 6.77614H27.89V4.76191C27.89 3.54055 28.8799 2.54751 30.1044 2.54751C31.3289 2.54751 32.3188 3.54055 32.3188 4.76191V6.77614H32.3204Z" fill="white"/>
</svg>
